<?xml version="1.0" encoding="utf-8"?>
<!-- Generator: Adobe Illustrator 22.1.0, SVG Export Plug-In . SVG Version: 6.00 Build 0)  -->
<svg version="1.1" id="Layer_1" xmlns="http://www.w3.org/2000/svg" xmlns:xlink="http://www.w3.org/1999/xlink" x="0px" y="0px"
	 viewBox="0 0 327.7 95.7" style="enable-background:new 0 0 327.7 95.7;" xml:space="preserve">
<style type="text/css">
	.st0{fill:#FFFFFF;}
</style>
<title>ANP</title>
<g id="Layer_2_1_">
	<g id="Logo">
		<g id="_Group_">
			<path class="st0" d="M56.5,28.3v65.4c0,1.1-0.9,2-2,2H39.7c-1.1,0-2-0.9-2-2V72.1H19v21.5c0,1.1-0.9,2-2,2H2c-1.1,0-2-0.9-2-2
				V28.3c0.1-7.5,3.1-14.7,8.5-19.9C13.7,3,20.8,0,28.3,0s14.7,3,20,8.3C53.5,13.6,56.5,20.8,56.5,28.3z M37.7,53.4V27.6
				c0-5.3-4.2-9.1-9.6-9.1c-4.9-0.1-9,3.8-9.1,8.7v26.3L37.7,53.4L37.7,53.4z"/>
			<path class="st0" d="M115.5,3.2c0.1-1.1,1.1-1.8,2.2-1.8h14.9c1-0.1,1.9,0.7,2,1.7v90.5c-0.1,1.1-0.9,1.9-2,2h-17.8
				c-0.7,0-1.4-0.4-1.6-1.1L88.7,42.8v50.9c-0.1,1.1-0.9,1.9-2,2H71.6c-1-0.1-1.7-1-1.6-2V3.2c0-1.2,0.5-1.8,1.6-1.8h17.8
				c0.7,0,1.4,0.4,1.8,1.1L115.6,54L115.5,3.2z"/>
			<path class="st0" d="M166.7,1.5c22.6,0,37.8,16,37.8,35.3c0,19-15.2,34.7-37.8,34.7v22.2c0.1,1-0.6,1.9-1.7,2c-0.1,0-0.2,0-0.3,0
				H150c-1,0.1-1.9-0.6-2-1.7c0-0.1,0-0.2,0-0.3V3.5c-0.1-1,0.6-1.9,1.6-2c0.1,0,0.2,0,0.4,0H166.7z M166.7,54.1
				c5.9,0,10.1-0.9,13.3-4.2c3.6-3.5,5.5-8.2,5.4-13.2c0-5.5-1.8-10.1-5.4-13.5c-3.2-3.1-7.4-4-13.3-4V54.1z"/>
		</g>
	</g>
</g>
<rect x="261" y="28.9" class="st0" width="37.8" height="37.8"/>
<path class="st0" d="M232.1,0v95.7h95.7V0H232.1z M304.4,72.4h-49.1V23.3h49.1V72.4z"/>
</svg>
