<?xml version="1.0" encoding="utf-8"?>
<!-- Generator: Adobe Illustrator 22.1.0, SVG Export Plug-In . SVG Version: 6.00 Build 0)  -->
<svg version="1.1" id="Layer_1" xmlns="http://www.w3.org/2000/svg" xmlns:xlink="http://www.w3.org/1999/xlink" x="0px" y="0px"
	 viewBox="0 0 778.3 841.9" style="enable-background:new 0 0 778.3 841.9;" xml:space="preserve">
<style type="text/css">
	.st0{clip-path:url(#SVGID_2_);fill:none;}
	.st1{fill:#BBBBBB;}
	.st2{fill:none;stroke:#F5F6F6;stroke-width:2;stroke-linecap:round;stroke-linejoin:round;}
	.st3{fill:#8B8A8B;}
	.st4{fill:none;stroke:#BBBBBB;stroke-width:5;}
	.st5{fill:none;stroke:#BBBBBB;stroke-width:4;}
	.st6{fill:none;stroke:#BBBBBB;}
	.st7{font-family:'Baskerville-Normal';}
	.st8{font-size:16px;}
</style>
<g>
	<g>
		<defs>
			<rect id="SVGID_1_" x="-176.5" y="-36.5" width="951" height="875"/>
		</defs>
		<clipPath id="SVGID_2_">
			<use xlink:href="#SVGID_1_"  style="overflow:visible;"/>
		</clipPath>
		<rect x="-176" y="-36" class="st0" width="950" height="874"/>
	</g>
	<polygon class="st1" points="312.2,175.8 315.2,175.6 312.2,185.6 311.2,190.2 310.8,193.1 311.4,197.3 309.9,198.3 307,198.1 
		306.7,198.8 306.8,199.7 307.6,201.5 308.6,202.4 309.7,203.1 310.7,203.5 311.3,204.5 311.5,205.6 311.5,207.3 310.4,210 
		306.7,213.4 302.3,212.4 300.8,213.2 301.3,216.3 301.9,217.2 302.2,218.7 302.1,220.4 299.4,226.6 298.2,228.3 296.3,228.2 
		295.5,227.2 294.8,226.6 290.9,222.3 289.2,220.9 288,220.5 285.1,220.3 283.7,220.9 282.8,221.9 282.3,222.5 281,226.8 
		279.7,229.2 278.3,231 277.9,232 278.1,233.2 279,234.4 282,236.7 282.6,237.7 283,238.7 282.9,239.9 282.7,240.7 281.4,242.4 
		282.6,244.6 285.1,246.3 287.2,249.1 286.6,252.9 285,254.8 282.3,263.4 282.7,266.5 274.9,267.9 270,269.7 266.3,272.5 
		262.8,273.7 259.7,275.9 258.5,276.3 254.9,276.8 253.8,278 251.4,278.6 250.1,279.5 248.8,281 244.9,284 242.1,288.4 240,289.6 
		234.8,293.2 228.5,295.9 219.6,302.5 212.8,301.4 207.8,302.4 207.3,302.8 207,303.5 206.9,304.2 206.7,304.9 206.3,305.3 
		205.6,305.3 204.7,304.4 202.8,303.5 201,301.8 198.3,299.9 194.6,298.9 193.5,297.9 192.2,297.4 191.7,292.6 195,287.4 
		195.5,286.1 195.6,284.1 194.4,282 194.2,281 194.4,280.1 197.1,278 203.5,275.4 202.1,273.1 201.4,272.2 200.6,271.4 199.9,270.4 
		199.2,267.6 197.9,264.3 197.8,263.2 198.5,262 199.3,261.3 204.1,259.3 202.1,257.7 200,256.9 199.4,256.5 198.6,254.4 
		198.5,250.1 198.1,249 197.4,247.7 195.8,245.9 195.3,244.9 195.1,244 195.1,243.3 195.1,242.6 196.2,240.6 198.9,238.4 
		201.7,235.3 204.1,230.2 205.1,228.4 205.3,227.5 204,222.8 207.6,222.4 208.5,222.8 209.9,223 211.3,222.8 213.4,221.8 
		214.7,221.7 215.7,222.1 216.6,222.8 217.6,223.2 218.7,223.3 219.7,223.1 220.3,222 220.4,220.2 219.4,217.4 218.8,213.4 
		218.3,211.3 218.1,210.3 218.5,208.5 219,206.8 222.7,201.4 223,200.6 223,200.3 223,200 222.9,199.3 222.5,198.7 221.7,198.7 
		220.2,200 219.8,200.5 219.5,201 218.7,202.9 217.1,203.1 215.7,203.1 206.9,198.9 207,195.5 207.1,194.4 206.7,192.9 206.3,192 
		199.2,187.4 207.1,184.3 210.9,183.4 222.6,184.2 225.9,183.9 240.2,178.9 245.4,175.6 251.6,171.7 253.9,171.3 255.5,172.1 
		258.3,174.8 259.7,175.9 261.7,176.5 264,176.6 266.2,176.3 268.2,175.6 271.5,173.2 273.3,172.3 275.3,172.1 275.6,172.1 
		280.5,172.7 286,171.9 299.8,166.7 301.5,166.8 303.3,168.1 306.8,173.2 308.3,174.5 	"/>
	<polygon class="st2" points="312.2,175.8 315.2,175.6 312.2,185.6 311.2,190.2 310.8,193.1 311.4,197.3 309.9,198.3 307,198.1 
		306.7,198.8 306.8,199.7 307.6,201.5 308.6,202.4 309.7,203.1 310.7,203.5 311.3,204.5 311.5,205.6 311.5,207.3 310.4,210 
		306.7,213.4 302.3,212.4 300.8,213.2 301.3,216.3 301.9,217.2 302.2,218.7 302.1,220.4 299.4,226.6 298.2,228.3 296.3,228.2 
		295.5,227.2 294.8,226.6 290.9,222.3 289.2,220.9 288,220.5 285.1,220.3 283.7,220.9 282.8,221.9 282.3,222.5 281,226.8 
		279.7,229.2 278.3,231 277.9,232 278.1,233.2 279,234.4 282,236.7 282.6,237.7 283,238.7 282.9,239.9 282.7,240.7 281.4,242.4 
		282.6,244.6 285.1,246.3 287.2,249.1 286.6,252.9 285,254.8 282.3,263.4 282.7,266.5 274.9,267.9 270,269.7 266.3,272.5 
		262.8,273.7 259.7,275.9 258.5,276.3 254.9,276.8 253.8,278 251.4,278.6 250.1,279.5 248.8,281 244.9,284 242.1,288.4 240,289.6 
		234.8,293.2 228.5,295.9 219.6,302.5 212.8,301.4 207.8,302.4 207.3,302.8 207,303.5 206.9,304.2 206.7,304.9 206.3,305.3 
		205.6,305.3 204.7,304.4 202.8,303.5 201,301.8 198.3,299.9 194.6,298.9 193.5,297.9 192.2,297.4 191.7,292.6 195,287.4 
		195.5,286.1 195.6,284.1 194.4,282 194.2,281 194.4,280.1 197.1,278 203.5,275.4 202.1,273.1 201.4,272.2 200.6,271.4 199.9,270.4 
		199.2,267.6 197.9,264.3 197.8,263.2 198.5,262 199.3,261.3 204.1,259.3 202.1,257.7 200,256.9 199.4,256.5 198.6,254.4 
		198.5,250.1 198.1,249 197.4,247.7 195.8,245.9 195.3,244.9 195.1,244 195.1,243.3 195.1,242.6 196.2,240.6 198.9,238.4 
		201.7,235.3 204.1,230.2 205.1,228.4 205.3,227.5 204,222.8 207.6,222.4 208.5,222.8 209.9,223 211.3,222.8 213.4,221.8 
		214.7,221.7 215.7,222.1 216.6,222.8 217.6,223.2 218.7,223.3 219.7,223.1 220.3,222 220.4,220.2 219.4,217.4 218.8,213.4 
		218.3,211.3 218.1,210.3 218.5,208.5 219,206.8 222.7,201.4 223,200.6 223,200.3 223,200 222.9,199.3 222.5,198.7 221.7,198.7 
		220.2,200 219.8,200.5 219.5,201 218.7,202.9 217.1,203.1 215.7,203.1 206.9,198.9 207,195.5 207.1,194.4 206.7,192.9 206.3,192 
		199.2,187.4 207.1,184.3 210.9,183.4 222.6,184.2 225.9,183.9 240.2,178.9 245.4,175.6 251.6,171.7 253.9,171.3 255.5,172.1 
		258.3,174.8 259.7,175.9 261.7,176.5 264,176.6 266.2,176.3 268.2,175.6 271.5,173.2 273.3,172.3 275.3,172.1 275.6,172.1 
		280.5,172.7 286,171.9 299.8,166.7 301.5,166.8 303.3,168.1 306.8,173.2 308.3,174.5 	"/>
	<polygon class="st1" points="211.2,34.7 213,34.2 215.1,33.2 217.5,33 219.7,33.9 221.5,35.7 222.5,38 222.2,40.8 221,42.8 
		219.1,44.4 215.7,46.6 212.3,50 207.7,56.7 206.6,59.6 206.4,62.5 207.8,65.3 212,67 212.9,68.2 213.1,70.3 212.6,74.1 212.5,74.1 
		212.1,74.3 210.6,74.3 199.5,80.4 196.6,81.4 186.4,81.9 184.6,82.3 183,83 182.1,83.6 180,85.3 178,86.1 177.1,86.1 176.1,85.8 
		175.2,86.1 174.6,86.5 173.6,87.5 173.3,88.7 173,89.9 172.8,92.3 172.6,93.5 172.2,94.6 171.2,95.6 170.6,96.7 170.3,97.6 
		170.9,99.3 168.8,103 168.1,102.9 167,102.6 165.7,101.9 163.3,101.5 159.8,100.2 158.9,99.5 158.3,99.9 157.9,100.6 157,101.4 
		156,101.6 150,101.9 141.4,105 140.2,105.2 138,104.8 137.4,104.7 137.3,102.8 136.4,100 136.1,96.3 136.5,94.5 139.2,93.5 
		146.4,92.3 148.4,91.3 150.3,89.9 151.9,88.4 138.9,92.3 136.2,92.7 134.7,92.5 132.5,91.1 130.3,86 130.3,81.5 131.3,74.4 
		130.4,69.9 130.9,68.3 131.8,66.7 140.1,59.8 144.1,55.2 145.5,49.4 146.8,48.4 149.5,47.1 152.5,46.1 154.9,44.5 155.8,42.9 
		157,39.5 158,37.9 160,36.4 162.1,36 166.4,35.9 168.5,35 172.6,32.2 174.8,31.4 192.9,28.4 194.9,27.3 197.9,24.6 199,23.9 
		199.9,23.7 201.9,23.6 204,22.7 207.5,20.2 208.6,21.7 209.7,24.1 209.3,30.9 209.7,33.5 	"/>
	<polygon class="st2" points="211.2,34.7 213,34.2 215.1,33.2 217.5,33 219.7,33.9 221.5,35.7 222.5,38 222.2,40.8 221,42.8 
		219.1,44.4 215.7,46.6 212.3,50 207.7,56.7 206.6,59.6 206.4,62.5 207.8,65.3 212,67 212.9,68.2 213.1,70.3 212.6,74.1 212.5,74.1 
		212.1,74.3 210.6,74.3 199.5,80.4 196.6,81.4 186.4,81.9 184.6,82.3 183,83 182.1,83.6 180,85.3 178,86.1 177.1,86.1 176.1,85.8 
		175.2,86.1 174.6,86.5 173.6,87.5 173.3,88.7 173,89.9 172.8,92.3 172.6,93.5 172.2,94.6 171.2,95.6 170.6,96.7 170.3,97.6 
		170.9,99.3 168.8,103 168.1,102.9 167,102.6 165.7,101.9 163.3,101.5 159.8,100.2 158.9,99.5 158.3,99.9 157.9,100.6 157,101.4 
		156,101.6 150,101.9 141.4,105 140.2,105.2 138,104.8 137.4,104.7 137.3,102.8 136.4,100 136.1,96.3 136.5,94.5 139.2,93.5 
		146.4,92.3 148.4,91.3 150.3,89.9 151.9,88.4 138.9,92.3 136.2,92.7 134.7,92.5 132.5,91.1 130.3,86 130.3,81.5 131.3,74.4 
		130.4,69.9 130.9,68.3 131.8,66.7 140.1,59.8 144.1,55.2 145.5,49.4 146.8,48.4 149.5,47.1 152.5,46.1 154.9,44.5 155.8,42.9 
		157,39.5 158,37.9 160,36.4 162.1,36 166.4,35.9 168.5,35 172.6,32.2 174.8,31.4 192.9,28.4 194.9,27.3 197.9,24.6 199,23.9 
		199.9,23.7 201.9,23.6 204,22.7 207.5,20.2 208.6,21.7 209.7,24.1 209.3,30.9 209.7,33.5 	"/>
	<polygon class="st1" points="249,66.7 249.8,65.8 250.2,64.7 250.7,63.9 252,63.5 255.1,63.6 262.4,61.9 265.7,60.2 267.6,60.6 
		270.8,63 272.9,64 279.2,64.3 277.4,69.2 277.4,70.7 279.3,71.8 281.4,72 283.9,71.6 286.3,70.7 288.1,69.5 288.7,68.3 288.8,67.3 
		289,66.3 289.9,65.6 290.8,65.6 292.6,66.8 293.7,66.9 295.3,67.5 296.9,69.6 298,72.4 298.5,74.9 300,73.5 302.9,70.3 304.4,69.2 
		306.2,68.9 310.5,69 312.6,68.6 320.9,65.8 324.8,63.3 325.9,61.8 326.1,62.6 326.8,65.6 326.5,67.3 326.2,70.5 326.5,73.2 
		326.8,74.8 327.9,77.6 330,80.6 330.1,81.9 330.2,84.1 329.9,85 329.2,85.9 328.6,86.2 327.5,87.2 324.6,93.4 320.8,106.5 
		320.3,110.7 320.5,112.7 320.9,114 321.4,115.1 322,116.1 322.5,117.1 322.7,118.1 322.3,119 321.5,119.4 320.4,119.7 319.3,119.8 
		318.2,120.2 317.1,121.5 315.7,124.2 314.8,126.7 313.8,128 312.8,128.6 311.8,129 307.9,132 307.9,139.7 308.6,142.8 309.4,145 
		310.4,146.2 313.2,147.9 309.2,149.2 307.1,151.4 306.8,153 307.1,154 306.8,154.6 305.7,155.9 304.6,157.3 304.1,159.3 
		304.1,160.7 304.1,161.7 304.3,162.5 303.9,162.8 302.2,163 301.1,163.5 300.6,164.4 300.4,165.2 299.7,167.2 285.9,172.4 
		280.4,173.2 275.5,172.6 275.2,172.6 273.2,172.8 271.4,173.7 268.1,176.1 266.1,176.8 263.9,177.1 261.6,177 259.6,176.4 
		258.2,175.3 255.4,172.6 253.8,171.8 251.5,172.2 245.3,176.1 245.9,172.4 246.1,168.7 247.7,162.4 247.2,162.2 245.7,161.1 
		243.7,157.4 243.2,155.1 243.7,153.1 240.5,150.7 238.8,149.7 238,148.4 237.8,147 237.9,145.7 236,143.2 237,140.4 237,139.6 
		236.7,138.5 237,138 237.3,137.8 237.9,137.4 238.2,136.3 239.9,133.4 240.3,132.3 240.4,131.5 239.9,130.4 241,126.7 242.1,125.1 
		242.7,124.7 243.2,124.7 244.2,124.9 245.4,123.8 246,121.9 246.4,121.4 248.6,120.4 250,118.9 254.7,111.8 255,109.9 253,106.3 
		252.4,105.7 251.2,105 248.8,107.8 245.3,108.8 243.8,108.8 239.3,107.8 238.2,107.4 237,106.7 235.7,106.5 233.3,105.4 
		233.7,98.4 234,96.9 234.5,95 234.2,94.1 233.6,93.5 230.5,91.6 229.8,91.2 229,91.1 226.8,92.2 225.9,92.3 224.9,92.1 224,92.1 
		223.1,92.2 222.4,92.5 220.9,92.8 219.3,92.7 221.9,89.6 222.5,88.6 223.2,87.2 224.2,83.8 225.3,81.9 226.1,77.4 226.7,76.3 
		227.3,75.3 227.5,74.4 227.5,73.6 227.2,73.3 227.4,73.2 231.3,69.2 232.4,67.3 233.9,65.8 235.5,65 237.4,65.3 239.6,65.3 
		240.7,63.2 241.3,60.6 241.8,58.8 244.1,57.9 244.4,62.1 245.2,66.7 	"/>
	<polygon class="st2" points="249,66.7 249.8,65.8 250.2,64.7 250.7,63.9 252,63.5 255.1,63.6 262.4,61.9 265.7,60.2 267.6,60.6 
		270.8,63 272.9,64 279.2,64.3 277.4,69.2 277.4,70.7 279.3,71.8 281.4,72 283.9,71.6 286.3,70.7 288.1,69.5 288.7,68.3 288.8,67.3 
		289,66.3 289.9,65.6 290.8,65.6 292.6,66.8 293.7,66.9 295.3,67.5 296.9,69.6 298,72.4 298.5,74.9 300,73.5 302.9,70.3 304.4,69.2 
		306.2,68.9 310.5,69 312.6,68.6 320.9,65.8 324.8,63.3 325.9,61.8 326.1,62.6 326.8,65.6 326.5,67.3 326.2,70.5 326.5,73.2 
		326.8,74.8 327.9,77.6 330,80.6 330.1,81.9 330.2,84.1 329.9,85 329.2,85.9 328.6,86.2 327.5,87.2 324.6,93.4 320.8,106.5 
		320.3,110.7 320.5,112.7 320.9,114 321.4,115.1 322,116.1 322.5,117.1 322.7,118.1 322.3,119 321.5,119.4 320.4,119.7 319.3,119.8 
		318.2,120.2 317.1,121.5 315.7,124.2 314.8,126.7 313.8,128 312.8,128.6 311.8,129 307.9,132 307.9,139.7 308.6,142.8 309.4,145 
		310.4,146.2 313.2,147.9 309.2,149.2 307.1,151.4 306.8,153 307.1,154 306.8,154.6 305.7,155.9 304.6,157.3 304.1,159.3 
		304.1,160.7 304.1,161.7 304.3,162.5 303.9,162.8 302.2,163 301.1,163.5 300.6,164.4 300.4,165.2 299.7,167.2 285.9,172.4 
		280.4,173.2 275.5,172.6 275.2,172.6 273.2,172.8 271.4,173.7 268.1,176.1 266.1,176.8 263.9,177.1 261.6,177 259.6,176.4 
		258.2,175.3 255.4,172.6 253.8,171.8 251.5,172.2 245.3,176.1 245.9,172.4 246.1,168.7 247.7,162.4 247.2,162.2 245.7,161.1 
		243.7,157.4 243.2,155.1 243.7,153.1 240.5,150.7 238.8,149.7 238,148.4 237.8,147 237.9,145.7 236,143.2 237,140.4 237,139.6 
		236.7,138.5 237,138 237.3,137.8 237.9,137.4 238.2,136.3 239.9,133.4 240.3,132.3 240.4,131.5 239.9,130.4 241,126.7 242.1,125.1 
		242.7,124.7 243.2,124.7 244.2,124.9 245.4,123.8 246,121.9 246.4,121.4 248.6,120.4 250,118.9 254.7,111.8 255,109.9 253,106.3 
		252.4,105.7 251.2,105 248.8,107.8 245.3,108.8 243.8,108.8 239.3,107.8 238.2,107.4 237,106.7 235.7,106.5 233.3,105.4 
		233.7,98.4 234,96.9 234.5,95 234.2,94.1 233.6,93.5 230.5,91.6 229.8,91.2 229,91.1 226.8,92.2 225.9,92.3 224.9,92.1 224,92.1 
		223.1,92.2 222.4,92.5 220.9,92.8 219.3,92.7 221.9,89.6 222.5,88.6 223.2,87.2 224.2,83.8 225.3,81.9 226.1,77.4 226.7,76.3 
		227.3,75.3 227.5,74.4 227.5,73.6 227.2,73.3 227.4,73.2 231.3,69.2 232.4,67.3 233.9,65.8 235.5,65 237.4,65.3 239.6,65.3 
		240.7,63.2 241.3,60.6 241.8,58.8 244.1,57.9 244.4,62.1 245.2,66.7 	"/>
	<path class="st1" d="M135.2,581.9l-0.8,0.1l-0.1,0.5l0,0.5l1,0.9l0.6-1.3L135.2,581.9z M218.4,617.2l-0.9-3.8l-2.9-6.2l-4.4-3.4
		L208,603l-1,0l-1.1-0.2l-1.1-0.3l-2.4-1.4l-1.6-1.3l-2.5-1l-0.7-0.4v-1.1l1.9-3.4l0.4-2.6l-0.6-1.2l-0.9-0.7l-1.7-0.8l-0.5-0.8
		l0-0.8l0.5-0.5l0-0.9l-1.6-4.1l-0.1-0.9l-0.1-0.4l0-0.2l-0.1-0.1l-0.6-0.8l-1.5-1.6l-2.3-2.8l-1-0.5l-2.2,0.5l-2.7,1.7l-1.7,0.6
		l-3.4,0.1l-1.4-0.6l-1.1-0.8l-0.7-0.7l-0.4-0.8l-0.8-0.5l-1.1-0.1l-0.5,0.6l0.2,0.7l0.2,1l-0.1,0.8l-0.7,0.4l-2.8-0.9l-3.4-0.5
		l-4.5-2.7l-3.5-0.5l-0.7-3.6l-0.3-1.2l-0.5-1l-0.1-1.4l0.1-1.2l4.2-5.4l9.8-6.9l1.9-2.3l1-1.4l0.2-1.9l-0.1-1l1.2-2.4l-0.3-1.5
		l-0.7-0.4l-4.9-0.9l-3.1-0.5l-1.1,0l-1.3-0.3l-1.3-1.7l-0.2-1.3l0-1.3l0.2-1.1l0-1.1l0.2-1.1l-0.1-0.7l-0.6-0.3l-2,0.9l-2.2,1.3
		l-3.2-1.2l-1.4-0.9l-0.7-0.6l-0.9-0.5l-0.8,0.3l-3.4,6.8l-1.4,4.2l-0.3,1.2l-1.8,2.3l-2,0.6l-0.8-0.1l-3.3-1.2l-1.1-1.5l-0.9-0.4
		l-1.3-0.2l-2,0.5l-1.2,0.7l-2.4,1l-1.3,0.1l-1.1-0.4l-1-1.1l-0.6-2.3l0.2-1.9l-1-0.1l-1.3,0.4l-0.5,0.2l-0.7,0.6l-0.5,0.3l-4.2,3.7
		L114,546l-1.9,1.9l-1.8,2.1v0.9l-1.7,0.2l-3.7,1l-1.8,0.9l0.7,3.1h-0.7l-1.2-1.8l-2.5-1.5l-5,0.5L89,554l-2.1,1.2l1.7,4.5l3.6,5.7
		l2.8,6.9l0,7.1l-0.7,4.7l-3.5,3.5l-0.8,1.3l-0.5,0.4l-0.3,0.9l0,1.1l0.4,0.8l0.5,0l3,0.9l2.1-0.5l1.9-1.4l2.4-0.9l11.4-1.4l6.6-2.8
		l-0.9-0.7l5.3-6.1l5.8-1.1l4.5,1.6l4.1,2.2l2.3,0.6l2.8,0.2l1-1.2l0-2.4L141,577l-2.6-0.4v-0.9l2.3-0.8l2.3-4.8l1.8,0.3l-0.8,1.7
		l0.4,2.1l1.1,1.7l1.7,0.6v1.1l-1,0.7l-0.6,1.4l-0.2,1.9l0.2,2.1l0.7,2l1,1.3l8.6,4.1l3,0.7l3.5,0.2l-5.9,1.9l-11.7-3.2l-4.9,0.2
		l-0.2-1.9l-2.5-1.4l-5.4-1.8l-4.3-3.8l-2.7-1.1l-1.8,1.9l3.3,1.3l4.3,3.5l3.7,4.4l3,3.2l3,5.9l1.1,8.3l0.9,9.4l0.4,8l-2.6,8
		l-2.2,10.6l-6.1,13.2l-0.9,0.9l-0.9,0.4l-0.8,0.5l-0.6,1.2l4.8,3l3.9,0.7l1.9,3.8l0.7,3.5l0.2,4.9l-0.5,2.7l1.1,1.1l0.7,0.9
		l0.6,0.4l0.9,0.1l0.8-0.5l1-0.5l0.8-0.3l2,0.7l0.8,1.1l0.4,0.8l3,3.7l1.1,2l0.6,0.7l0.7-0.1l0.5-0.7l0.4-0.8l0.7-0.4l0.9,0.2
		l0.9,0.5l0.9,0.7l2,0.9l1.3,0.1l2-0.7l0.7-1l0.2-1.2l0.1-1.1l1.1-3.3l0.6-1.1l2-2.1l0.5-1.1l0.3-1.1l1.2-1l2-1l10.5-2l5.2,0.9
		l3.1,0l0.5,0.1l3.5,1.9l1.6-4.1l0.5-1l1.3-4l0.8-6.5l-0.1-4.3l-1.1-3.2l-0.8-1.5l-1.6-1.3l-1.5-0.1L193,651l-1.5-0.7l-1.7-2.1
		l-2.3-1.8l-0.6-1.5l-0.2-0.8l-0.1-0.8l0.4-1l0.2-0.9l0.3-0.9l0.3-1.1l0.6-1.3l0.8,0l0.6,0.3l0.7,0.3l0.6,0l0.4-0.7l0.3-0.5l0.6-1.4
		l0.2-0.7l0-0.8l0.1-0.6l0.3-0.6l0.8-0.3l0.7-0.7l0.8-0.2l1.2,0.5l0.9,0.7l1,0.3l0.8-0.5l0.8-2.6l0.1-1.2l0.4-0.9l0.9-0.6l4.2,0.2
		l0.8-1.2l0.5-1.6l1-0.5l4.1-1l2-1l4.1-1.2l0.5-1.7l0-1L218.4,617.2z"/>
	<path class="st2" d="M135.2,581.9l-0.8,0.1l-0.1,0.5l0,0.5l1,0.9l0.6-1.3L135.2,581.9z M218.4,617.2l-0.9-3.8l-2.9-6.2l-4.4-3.4
		L208,603l-1,0l-1.1-0.2l-1.1-0.3l-2.4-1.4l-1.6-1.3l-2.5-1l-0.7-0.4v-1.1l1.9-3.4l0.4-2.6l-0.6-1.2l-0.9-0.7l-1.7-0.8l-0.5-0.8
		l0-0.8l0.5-0.5l0-0.9l-1.6-4.1l-0.1-0.9l-0.1-0.4l0-0.2l-0.1-0.1l-0.6-0.8l-1.5-1.6l-2.3-2.8l-1-0.5l-2.2,0.5l-2.7,1.7l-1.7,0.6
		l-3.4,0.1l-1.4-0.6l-1.1-0.8l-0.7-0.7l-0.4-0.8l-0.8-0.5l-1.1-0.1l-0.5,0.6l0.2,0.7l0.2,1l-0.1,0.8l-0.7,0.4l-2.8-0.9l-3.4-0.5
		l-4.5-2.7l-3.5-0.5l-0.7-3.6l-0.3-1.2l-0.5-1l-0.1-1.4l0.1-1.2l4.2-5.4l9.8-6.9l1.9-2.3l1-1.4l0.2-1.9l-0.1-1l1.2-2.4l-0.3-1.5
		l-0.7-0.4l-4.9-0.9l-3.1-0.5l-1.1,0l-1.3-0.3l-1.3-1.7l-0.2-1.3l0-1.3l0.2-1.1l0-1.1l0.2-1.1l-0.1-0.7l-0.6-0.3l-2,0.9l-2.2,1.3
		l-3.2-1.2l-1.4-0.9l-0.7-0.6l-0.9-0.5l-0.8,0.3l-3.4,6.8l-1.4,4.2l-0.3,1.2l-1.8,2.3l-2,0.6l-0.8-0.1l-3.3-1.2l-1.1-1.5l-0.9-0.4
		l-1.3-0.2l-2,0.5l-1.2,0.7l-2.4,1l-1.3,0.1l-1.1-0.4l-1-1.1l-0.6-2.3l0.2-1.9l-1-0.1l-1.3,0.4l-0.5,0.2l-0.7,0.6l-0.5,0.3l-4.2,3.7
		L114,546l-1.9,1.9l-1.8,2.1v0.9l-1.7,0.2l-3.7,1l-1.8,0.9l0.7,3.1h-0.7l-1.2-1.8l-2.5-1.5l-5,0.5L89,554l-2.1,1.2l1.7,4.5l3.6,5.7
		l2.8,6.9l0,7.1l-0.7,4.7l-3.5,3.5l-0.8,1.3l-0.5,0.4l-0.3,0.9l0,1.1l0.4,0.8l0.5,0l3,0.9l2.1-0.5l1.9-1.4l2.4-0.9l11.4-1.4l6.6-2.8
		l-0.9-0.7l5.3-6.1l5.8-1.1l4.5,1.6l4.1,2.2l2.3,0.6l2.8,0.2l1-1.2l0-2.4L141,577l-2.6-0.4v-0.9l2.3-0.8l2.3-4.8l1.8,0.3l-0.8,1.7
		l0.4,2.1l1.1,1.7l1.7,0.6v1.1l-1,0.7l-0.6,1.4l-0.2,1.9l0.2,2.1l0.7,2l1,1.3l8.6,4.1l3,0.7l3.5,0.2l-5.9,1.9l-11.7-3.2l-4.9,0.2
		l-0.2-1.9l-2.5-1.4l-5.4-1.8l-4.3-3.8l-2.7-1.1l-1.8,1.9l3.3,1.3l4.3,3.5l3.7,4.4l3,3.2l3,5.9l1.1,8.3l0.9,9.4l0.4,8l-2.6,8
		l-2.2,10.6l-6.1,13.2l-0.9,0.9l-0.9,0.4l-0.8,0.5l-0.6,1.2l4.8,3l3.9,0.7l1.9,3.8l0.7,3.5l0.2,4.9l-0.5,2.7l1.1,1.1l0.7,0.9
		l0.6,0.4l0.9,0.1l0.8-0.5l1-0.5l0.8-0.3l2,0.7l0.8,1.1l0.4,0.8l3,3.7l1.1,2l0.6,0.7l0.7-0.1l0.5-0.7l0.4-0.8l0.7-0.4l0.9,0.2
		l0.9,0.5l0.9,0.7l2,0.9l1.3,0.1l2-0.7l0.7-1l0.2-1.2l0.1-1.1l1.1-3.3l0.6-1.1l2-2.1l0.5-1.1l0.3-1.1l1.2-1l2-1l10.5-2l5.2,0.9
		l3.1,0l0.5,0.1l3.5,1.9l1.6-4.1l0.5-1l1.3-4l0.8-6.5l-0.1-4.3l-1.1-3.2l-0.8-1.5l-1.6-1.3l-1.5-0.1L193,651l-1.5-0.7l-1.7-2.1
		l-2.3-1.8l-0.6-1.5l-0.2-0.8l-0.1-0.8l0.4-1l0.2-0.9l0.3-0.9l0.3-1.1l0.6-1.3l0.8,0l0.6,0.3l0.7,0.3l0.6,0l0.4-0.7l0.3-0.5l0.6-1.4
		l0.2-0.7l0-0.8l0.1-0.6l0.3-0.6l0.8-0.3l0.7-0.7l0.8-0.2l1.2,0.5l0.9,0.7l1,0.3l0.8-0.5l0.8-2.6l0.1-1.2l0.4-0.9l0.9-0.6l4.2,0.2
		l0.8-1.2l0.5-1.6l1-0.5l4.1-1l2-1l4.1-1.2l0.5-1.7l0-1L218.4,617.2z"/>
	<polygon class="st1" points="181.6,393 183.7,392.3 188.6,390.5 190.1,390.1 192.7,389 194.9,389.3 195.5,388.9 195.1,386 
		194.9,384.9 195,384.1 195.9,384.5 200.8,385 201.5,387.3 202.6,388.1 204.2,388.5 205.5,389.1 206.3,389.9 206.7,390.8 
		206.8,391.5 206.8,392.3 206.8,393 207,395.9 206.1,397.3 206.2,400.2 206.6,405.6 207.7,407.5 214.2,410.1 217.2,412.1 
		219.7,412.3 223.8,411.8 226.3,410.9 226.2,410.1 226.1,409.1 225.2,406.8 225.2,405.1 225.7,403.1 226.6,401.6 228,393.8 
		228.6,392.7 231,392.3 234.7,393.6 237.6,393.7 238.3,394.3 238.6,395.3 238.8,396.4 238.9,397.5 239.1,398.6 239.2,400.9 
		239,403.3 239.3,404.5 240.1,405 241.4,405.3 242.8,405.5 245.2,406.4 246.9,407.8 249.1,409.1 251.5,412 254,415.9 254.4,417 
		255.3,419.6 256.4,421.1 253.9,422.6 253.1,423.2 250.8,426 250.3,426.4 249.7,426.7 249.5,426.4 247.9,424.9 243.1,422.3 
		240.9,421.7 239.4,422.3 237.2,424.2 234.8,427.9 232.3,434.5 236.9,439.4 238.8,440.7 239.3,441.8 239.4,442.7 237.1,446.4 
		231.5,450.3 230.7,451 230.3,453.1 229.7,454.2 228.1,456.8 225.3,460.1 224.9,460.9 224.3,461.6 223.5,462.3 221.8,462.8 
		219.5,462.3 218.4,462.7 216.9,464.2 215.6,467.3 212.8,469.6 205.9,476.1 199.4,480.7 197.8,482.3 194.4,487.8 194.3,490.2 
		197.1,491.5 198.3,492.3 199.4,493.4 199.8,494.9 200.2,496.1 200.9,497.2 202.2,498.3 203,499.9 203.4,501.1 203.6,502.2 
		205.2,503.6 210.4,505.3 209.4,507.1 208.7,507.7 207.1,507.8 206.5,508 206,508.9 205.6,510.3 205.5,512.7 205.2,514.3 
		204.8,515.6 204.1,516.6 203.4,517.4 203,518.4 203.3,519.6 204.2,520.4 205,520.9 211.1,523.7 212.5,523.9 213,524.3 213.6,525.5 
		212.9,528.1 212.9,529.2 213.7,530.5 215.5,532.6 216.5,532.7 217.5,533.2 218.2,534 218.4,535.3 217.8,537.4 215.7,539.3 
		213.8,538.3 213.3,537.5 212.7,535.7 212.1,535.3 211.5,535.5 210.8,535.4 210.4,534.8 210.3,533.9 209.8,533 209.1,532.2 
		207.9,531.7 204.2,531 203.2,530.2 200,526.9 199.2,526.3 198.4,526.3 197.9,527 197.7,527.7 197.1,528 196.4,527.9 195.2,527.9 
		193.9,528.4 192.4,528.3 190.3,527.5 189.6,527.6 189.3,528.3 189,529.2 188.5,529.9 188,530.5 187.3,530.9 186.4,531.2 185.1,531 
		183.9,531.3 181.5,533.8 180.3,534.7 175.1,535.7 169.4,540.5 166.4,540 165.3,540 164,539.6 162.7,538 162.5,536.7 162.5,535.4 
		162.7,534.3 162.7,533.1 162.9,532 162.9,531.3 162.3,530.9 160.3,531.9 158.1,533.2 154.8,532 153.4,531.1 152.7,530.5 151.9,530 
		151.1,530.3 147.7,537.1 146.3,541.3 146,542.5 144.2,544.8 142.2,545.4 141.4,545.4 138.1,544.2 137,542.7 136.1,542.3 
		134.8,542.1 132.8,542.6 131.6,543.3 129.2,544.3 127.9,544.4 126.7,544 125.8,543 125.2,540.7 125.3,538.8 124.4,535.4 124,534.4 
		123.5,533.8 121.5,531.2 121.5,529.4 123.2,527.5 124,526.4 125.8,523.1 129.8,512 131,509.5 132.2,508 132.7,506.4 135,503 
		133.8,502 133.4,500.7 137.7,499.4 140.1,496.6 140.8,496.1 141.1,495.6 140.9,494.8 140.9,494.8 142.7,492.8 143.8,490.7 
		140.7,493 140.7,493 139.8,490.9 139.3,490.2 138.8,489.6 138,489 135.6,488 134.9,487.4 131.5,484.3 130.9,483.4 130,481.4 
		129.2,480.8 128.3,480.3 127.7,479.5 127.7,478.6 129.4,477.4 130.8,476.9 134.3,477.1 136.2,476.6 137.8,475.1 131.9,469.2 
		131,467 126.3,468.5 118.2,466.1 118.4,463.8 117,460.3 116.7,455.3 116,452.6 116.5,450.8 119,446.4 121.3,445.9 122.3,445.2 
		123.4,443.7 127.1,435.9 128.7,434.2 132.1,432.9 139.8,432.3 145.5,432.9 147.2,431.7 147.4,430.6 147.6,430 147.6,429.8 
		147.4,429.4 146.6,427.8 146.4,426.6 146.5,425.5 147,424.8 147.9,424.9 148.8,425.3 150,425.3 151,425 154,421.1 154.7,419.9 
		153.3,415.9 153.1,413 152.1,408.3 154.6,406.2 155.7,405.6 156.7,404.9 157.6,404 158,402.6 157.5,400.2 156.6,399 155.6,398.2 
		154.9,397.4 154.5,396.2 154.5,394.4 154.2,391.7 154.2,390.5 154.8,389.2 155.5,388.2 160.9,385.8 163,386.4 164.4,386.1 
		166.6,385 172.3,380.9 173.9,380.3 175,380.3 176.5,379.1 178.3,378.5 179.9,384.9 180.2,386.5 181,390.1 181.2,391.4 181.5,392.3 
			"/>
	<polygon class="st2" points="181.6,393 183.7,392.3 188.6,390.5 190.1,390.1 192.7,389 194.9,389.3 195.5,388.9 195.1,386 
		194.9,384.9 195,384.1 195.9,384.5 200.8,385 201.5,387.3 202.6,388.1 204.2,388.5 205.5,389.1 206.3,389.9 206.7,390.8 
		206.8,391.5 206.8,392.3 206.8,393 207,395.9 206.1,397.3 206.2,400.2 206.6,405.6 207.7,407.5 214.2,410.1 217.2,412.1 
		219.7,412.3 223.8,411.8 226.3,410.9 226.2,410.1 226.1,409.1 225.2,406.8 225.2,405.1 225.7,403.1 226.6,401.6 228,393.8 
		228.6,392.7 231,392.3 234.7,393.6 237.6,393.7 238.3,394.3 238.6,395.3 238.8,396.4 238.9,397.5 239.1,398.6 239.2,400.9 
		239,403.3 239.3,404.5 240.1,405 241.4,405.3 242.8,405.5 245.2,406.4 246.9,407.8 249.1,409.1 251.5,412 254,415.9 254.4,417 
		255.3,419.6 256.4,421.1 253.9,422.6 253.1,423.2 250.8,426 250.3,426.4 249.7,426.7 249.5,426.4 247.9,424.9 243.1,422.3 
		240.9,421.7 239.4,422.3 237.2,424.2 234.8,427.9 232.3,434.5 236.9,439.4 238.8,440.7 239.3,441.8 239.4,442.7 237.1,446.4 
		231.5,450.3 230.7,451 230.3,453.1 229.7,454.2 228.1,456.8 225.3,460.1 224.9,460.9 224.3,461.6 223.5,462.3 221.8,462.8 
		219.5,462.3 218.4,462.7 216.9,464.2 215.6,467.3 212.8,469.6 205.9,476.1 199.4,480.7 197.8,482.3 194.4,487.8 194.3,490.2 
		197.1,491.5 198.3,492.3 199.4,493.4 199.8,494.9 200.2,496.1 200.9,497.2 202.2,498.3 203,499.9 203.4,501.1 203.6,502.2 
		205.2,503.6 210.4,505.3 209.4,507.1 208.7,507.7 207.1,507.8 206.5,508 206,508.9 205.6,510.3 205.5,512.7 205.2,514.3 
		204.8,515.6 204.1,516.6 203.4,517.4 203,518.4 203.3,519.6 204.2,520.4 205,520.9 211.1,523.7 212.5,523.9 213,524.3 213.6,525.5 
		212.9,528.1 212.9,529.2 213.7,530.5 215.5,532.6 216.5,532.7 217.5,533.2 218.2,534 218.4,535.3 217.8,537.4 215.7,539.3 
		213.8,538.3 213.3,537.5 212.7,535.7 212.1,535.3 211.5,535.5 210.8,535.4 210.4,534.8 210.3,533.9 209.8,533 209.1,532.2 
		207.9,531.7 204.2,531 203.2,530.2 200,526.9 199.2,526.3 198.4,526.3 197.9,527 197.7,527.7 197.1,528 196.4,527.9 195.2,527.9 
		193.9,528.4 192.4,528.3 190.3,527.5 189.6,527.6 189.3,528.3 189,529.2 188.5,529.9 188,530.5 187.3,530.9 186.4,531.2 185.1,531 
		183.9,531.3 181.5,533.8 180.3,534.7 175.1,535.7 169.4,540.5 166.4,540 165.3,540 164,539.6 162.7,538 162.5,536.7 162.5,535.4 
		162.7,534.3 162.7,533.1 162.9,532 162.9,531.3 162.3,530.9 160.3,531.9 158.1,533.2 154.8,532 153.4,531.1 152.7,530.5 151.9,530 
		151.1,530.3 147.7,537.1 146.3,541.3 146,542.5 144.2,544.8 142.2,545.4 141.4,545.4 138.1,544.2 137,542.7 136.1,542.3 
		134.8,542.1 132.8,542.6 131.6,543.3 129.2,544.3 127.9,544.4 126.7,544 125.8,543 125.2,540.7 125.3,538.8 124.4,535.4 124,534.4 
		123.5,533.8 121.5,531.2 121.5,529.4 123.2,527.5 124,526.4 125.8,523.1 129.8,512 131,509.5 132.2,508 132.7,506.4 135,503 
		133.8,502 133.4,500.7 137.7,499.4 140.1,496.6 140.8,496.1 141.1,495.6 140.9,494.8 140.9,494.8 142.7,492.8 143.8,490.7 
		140.7,493 140.7,493 139.8,490.9 139.3,490.2 138.8,489.6 138,489 135.6,488 134.9,487.4 131.5,484.3 130.9,483.4 130,481.4 
		129.2,480.8 128.3,480.3 127.7,479.5 127.7,478.6 129.4,477.4 130.8,476.9 134.3,477.1 136.2,476.6 137.8,475.1 131.9,469.2 
		131,467 126.3,468.5 118.2,466.1 118.4,463.8 117,460.3 116.7,455.3 116,452.6 116.5,450.8 119,446.4 121.3,445.9 122.3,445.2 
		123.4,443.7 127.1,435.9 128.7,434.2 132.1,432.9 139.8,432.3 145.5,432.9 147.2,431.7 147.4,430.6 147.6,430 147.6,429.8 
		147.4,429.4 146.6,427.8 146.4,426.6 146.5,425.5 147,424.8 147.9,424.9 148.8,425.3 150,425.3 151,425 154,421.1 154.7,419.9 
		153.3,415.9 153.1,413 152.1,408.3 154.6,406.2 155.7,405.6 156.7,404.9 157.6,404 158,402.6 157.5,400.2 156.6,399 155.6,398.2 
		154.9,397.4 154.5,396.2 154.5,394.4 154.2,391.7 154.2,390.5 154.8,389.2 155.5,388.2 160.9,385.8 163,386.4 164.4,386.1 
		166.6,385 172.3,380.9 173.9,380.3 175,380.3 176.5,379.1 178.3,378.5 179.9,384.9 180.2,386.5 181,390.1 181.2,391.4 181.5,392.3 
			"/>
	<polygon class="st1" points="162.6,146.2 163,146.1 164.2,145.9 170.8,145.9 171.7,145.6 172.7,145.3 173.5,144.5 174.4,143.8 
		176.6,142.5 178.6,142 180.1,142 181,142.5 181.8,143.1 184.7,143.6 188.3,142.6 193.1,141.9 194.1,142.3 195.7,143.4 196.5,143.4 
		199.2,142.3 200.1,142.1 203.7,140.4 206,138.6 207.8,135.9 213.6,138.1 216,140.6 216.4,141.5 216.2,143 220.4,146.1 224.1,147.8 
		225.4,147.5 227.9,148.9 229.3,150 230.5,149.9 231.4,149.5 232.3,148.8 232.9,148.2 233.3,147.6 234.2,146.9 234.8,146.5 
		235.3,145.9 235.7,145.1 236,144.5 236.4,142.9 238.3,145.4 238.2,146.8 238.4,148.2 239.2,149.5 240.9,150.4 244.1,152.8 
		243.6,154.9 244.1,157.2 246.1,160.8 247.6,162 248.1,162.2 246.5,168.5 246.3,172.3 245.7,175.9 240.5,179.2 226.2,184.2 
		222.9,184.6 211.2,183.7 207.3,184.6 199.5,187.8 199,189.5 198.6,189.9 192.9,193.9 190.6,193.1 187.5,194.6 187.4,195.4 
		187.5,196.3 188,197.2 188.2,198.2 187.8,198.9 186.8,198.9 184.7,197.2 183.9,195.5 183.3,194.6 180.9,192.1 178.9,194.4 
		178.3,195.3 177.6,197.5 176.7,198.1 175.5,198.2 173.8,197.3 172.8,196.3 171.8,195.7 170.4,195.8 168.6,197.1 164.8,198.4 
		162.9,197.2 157.8,197.8 156.7,198.2 156.6,198.2 156.6,196 155.2,185.5 155.4,180 157.4,177.9 157.4,176.9 153,175.9 150.8,171.6 
		149.2,166.2 147,161.8 147.6,159.7 147.3,158 146.7,156.2 146.1,154.3 146.2,149.5 145.6,148 144.8,147.5 144.3,145.9 143.9,144.3 
		142.2,141.5 141.5,139.2 141.6,137.3 141.3,132.8 142.6,127.6 145.3,127.7 148.1,129.3 151.1,130.8 154.1,130.9 155.3,131.3 
		156.3,132.2 157,133.1 159,135.2 160.6,136.2 162,136.5 163.1,137.6 163.5,138.5 163.2,139.3 162.5,139.7 161.3,140.1 160.5,141.2 
		160.6,142.5 161.1,144.5 161.8,145.7 	"/>
	<polygon class="st2" points="162.6,146.2 163,146.1 164.2,145.9 170.8,145.9 171.7,145.6 172.7,145.3 173.5,144.5 174.4,143.8 
		176.6,142.5 178.6,142 180.1,142 181,142.5 181.8,143.1 184.7,143.6 188.3,142.6 193.1,141.9 194.1,142.3 195.7,143.4 196.5,143.4 
		199.2,142.3 200.1,142.1 203.7,140.4 206,138.6 207.8,135.9 213.6,138.1 216,140.6 216.4,141.5 216.2,143 220.4,146.1 224.1,147.8 
		225.4,147.5 227.9,148.9 229.3,150 230.5,149.9 231.4,149.5 232.3,148.8 232.9,148.2 233.3,147.6 234.2,146.9 234.8,146.5 
		235.3,145.9 235.7,145.1 236,144.5 236.4,142.9 238.3,145.4 238.2,146.8 238.4,148.2 239.2,149.5 240.9,150.4 244.1,152.8 
		243.6,154.9 244.1,157.2 246.1,160.8 247.6,162 248.1,162.2 246.5,168.5 246.3,172.3 245.7,175.9 240.5,179.2 226.2,184.2 
		222.9,184.6 211.2,183.7 207.3,184.6 199.5,187.8 199,189.5 198.6,189.9 192.9,193.9 190.6,193.1 187.5,194.6 187.4,195.4 
		187.5,196.3 188,197.2 188.2,198.2 187.8,198.9 186.8,198.9 184.7,197.2 183.9,195.5 183.3,194.6 180.9,192.1 178.9,194.4 
		178.3,195.3 177.6,197.5 176.7,198.1 175.5,198.2 173.8,197.3 172.8,196.3 171.8,195.7 170.4,195.8 168.6,197.1 164.8,198.4 
		162.9,197.2 157.8,197.8 156.7,198.2 156.6,198.2 156.6,196 155.2,185.5 155.4,180 157.4,177.9 157.4,176.9 153,175.9 150.8,171.6 
		149.2,166.2 147,161.8 147.6,159.7 147.3,158 146.7,156.2 146.1,154.3 146.2,149.5 145.6,148 144.8,147.5 144.3,145.9 143.9,144.3 
		142.2,141.5 141.5,139.2 141.6,137.3 141.3,132.8 142.6,127.6 145.3,127.7 148.1,129.3 151.1,130.8 154.1,130.9 155.3,131.3 
		156.3,132.2 157,133.1 159,135.2 160.6,136.2 162,136.5 163.1,137.6 163.5,138.5 163.2,139.3 162.5,139.7 161.3,140.1 160.5,141.2 
		160.6,142.5 161.1,144.5 161.8,145.7 	"/>
	<polygon class="st3" points="285.2,402.8 286.1,404.9 289.9,415.5 292,417.4 295.5,422.1 297.4,424 301.4,426.1 302.4,427.4 
		303.5,430.7 305.3,432.2 307.8,433.4 312.7,434.7 313.6,436.2 313.6,439.4 313,442.9 312,445.1 311.4,447.2 311.5,450.6 312,453.8 
		312.9,455.6 315.1,457.4 320.9,464.5 319.3,467.3 319.2,470.5 320.1,473.5 321.7,475.9 324.6,477.5 327.9,478.3 330.6,479.6 
		332.1,482.5 331.8,484.1 330.5,487 330.7,488.3 331.9,489.5 333.6,490.4 335.4,490.7 336.8,490.1 339.6,488.4 342.7,488.1 
		345.8,488.9 348.5,490.8 350.3,492.6 352,495.3 352.7,498.3 351.9,500.9 353.2,501.9 353.4,503.3 352.8,504.8 351.6,506.3 
		347.7,514 345.1,517.7 342.6,519.8 344.2,522.7 343.6,525.1 343.7,527.2 342.8,527.8 341.3,529 339.9,530.5 338,531.4 332.6,532.6 
		331.5,533.6 330.8,535 329.2,536.9 327.3,538.5 325.5,539.2 323.8,540.6 323.8,540.6 323,539.6 323,538.2 323.3,537.4 325,534.7 
		325.2,533.7 325.1,531.6 324.7,530.6 323.3,529.7 321.9,529 319.8,529.1 316.3,530.2 313.8,532.4 311.4,534.9 309.7,535.5 
		309.1,535.3 307.1,535.3 305.3,534.2 304.2,533.3 302.7,530.4 301.9,529.2 302.6,526.9 300.8,524.5 300.6,522.5 299.6,519.5 
		297.1,517.2 297,515.6 296.8,514.7 296.5,512.1 295.7,510.6 293.9,508.7 289.2,506.8 288.6,505.4 288.5,505.3 288.1,505.4 
		287.5,505.4 286,506.5 286.8,507.7 287.2,508.5 287.2,509.5 286.8,510.5 285.6,511.3 283.9,512 281.4,512.5 279.7,513.1 278,514.5 
		277.3,515.7 276.7,516.7 276.2,517.3 275.6,517.6 274.6,517.8 272,516.7 270.8,516.5 269.8,516.6 268.6,517.2 267.6,516.9 
		265.9,515.8 264.9,515.7 263,518 261.9,519.2 258.1,520.6 255.6,520.5 254.6,520.6 253.3,520.6 252.1,520.4 248.8,518.2 
		243.5,510.9 242.2,509.9 239.6,510.4 237.7,511.7 237.1,512.6 236.2,513.3 235.3,513.8 234.3,514 231.4,513.6 231,513.3 
		231.1,511.6 231,509.4 230.7,508.1 228.1,505.3 228,505.1 227.4,504.8 226.3,504.5 224.5,504.8 223.2,505.3 223.1,505.4 223,505.5 
		222.9,505.9 222.7,506.7 222.7,507.6 222.4,508.5 221.7,508.7 220.9,507.9 220.4,505.8 220.8,503.8 221.1,502.9 221.1,502.1 
		219.4,501.4 216.1,501.6 215.2,501.8 214.4,502.4 212.4,503.2 210.1,505.3 204.9,503.6 203.3,502.2 203.1,501.1 202.7,499.9 
		201.9,498.3 200.6,497.2 199.9,496 199.5,494.9 199.1,493.4 198,492.3 196.8,491.5 194,490.2 194.1,487.7 197.5,482.3 199.1,480.7 
		205.6,476 212.5,469.6 215.3,467.3 216.6,464.1 218.1,462.6 219.2,462.3 221.5,462.7 223.2,462.3 224,461.6 224.5,460.9 225,460.1 
		227.8,456.8 229.4,454.2 230,453 230.4,451 231.2,450.2 236.8,446.4 239.1,442.7 239,441.7 238.5,440.7 236.6,439.3 232,434.5 
		234.5,427.8 236.9,424.1 239,422.2 240.6,421.6 242.8,422.2 247.6,424.8 249.2,426.4 249.4,426.7 250,426.3 250.5,425.9 
		252.8,423.1 253.5,422.5 256,421.1 257.7,419.2 259.4,416.8 261.3,414.8 263.6,413.9 264.4,412.8 265.5,410.5 266.9,407.9 
		268.8,406.5 271.5,406.7 273.5,407.8 275.5,408.1 278.1,406 279.7,404.5 281.7,403.2 284,402.3 285.2,402.8 	"/>
	<polygon class="st2" points="285.2,402.8 286.1,404.9 289.9,415.5 292,417.4 295.5,422.1 297.4,424 301.4,426.1 302.4,427.4 
		303.5,430.7 305.3,432.2 307.8,433.4 312.7,434.7 313.6,436.2 313.6,439.4 313,442.9 312,445.1 311.4,447.2 311.5,450.6 312,453.8 
		312.9,455.6 315.1,457.4 320.9,464.5 319.3,467.3 319.2,470.5 320.1,473.5 321.7,475.9 324.6,477.5 327.9,478.3 330.6,479.6 
		332.1,482.5 331.8,484.1 330.5,487 330.7,488.3 331.9,489.5 333.6,490.4 335.4,490.7 336.8,490.1 339.6,488.4 342.7,488.1 
		345.8,488.9 348.5,490.8 350.3,492.6 352,495.3 352.7,498.3 351.9,500.9 353.2,501.9 353.4,503.3 352.8,504.8 351.6,506.3 
		347.7,514 345.1,517.7 342.6,519.8 344.2,522.7 343.6,525.1 343.7,527.2 342.8,527.8 341.3,529 339.9,530.5 338,531.4 332.6,532.6 
		331.5,533.6 330.8,535 329.2,536.9 327.3,538.5 325.5,539.2 323.8,540.6 323.8,540.6 323,539.6 323,538.2 323.3,537.4 325,534.7 
		325.2,533.7 325.1,531.6 324.7,530.6 323.3,529.7 321.9,529 319.8,529.1 316.3,530.2 313.8,532.4 311.4,534.9 309.7,535.5 
		309.1,535.3 307.1,535.3 305.3,534.2 304.2,533.3 302.7,530.4 301.9,529.2 302.6,526.9 300.8,524.5 300.6,522.5 299.6,519.5 
		297.1,517.2 297,515.6 296.8,514.7 296.5,512.1 295.7,510.6 293.9,508.7 289.2,506.8 288.6,505.4 288.5,505.3 288.1,505.4 
		287.5,505.4 286,506.5 286.8,507.7 287.2,508.5 287.2,509.5 286.8,510.5 285.6,511.3 283.9,512 281.4,512.5 279.7,513.1 278,514.5 
		277.3,515.7 276.7,516.7 276.2,517.3 275.6,517.6 274.6,517.8 272,516.7 270.8,516.5 269.8,516.6 268.6,517.2 267.6,516.9 
		265.9,515.8 264.9,515.7 263,518 261.9,519.2 258.1,520.6 255.6,520.5 254.6,520.6 253.3,520.6 252.1,520.4 248.8,518.2 
		243.5,510.9 242.2,509.9 239.6,510.4 237.7,511.7 237.1,512.6 236.2,513.3 235.3,513.8 234.3,514 231.4,513.6 231,513.3 
		231.1,511.6 231,509.4 230.7,508.1 228.1,505.3 228,505.1 227.4,504.8 226.3,504.5 224.5,504.8 223.2,505.3 223.1,505.4 223,505.5 
		222.9,505.9 222.7,506.7 222.7,507.6 222.4,508.5 221.7,508.7 220.9,507.9 220.4,505.8 220.8,503.8 221.1,502.9 221.1,502.1 
		219.4,501.4 216.1,501.6 215.2,501.8 214.4,502.4 212.4,503.2 210.1,505.3 204.9,503.6 203.3,502.2 203.1,501.1 202.7,499.9 
		201.9,498.3 200.6,497.2 199.9,496 199.5,494.9 199.1,493.4 198,492.3 196.8,491.5 194,490.2 194.1,487.7 197.5,482.3 199.1,480.7 
		205.6,476 212.5,469.6 215.3,467.3 216.6,464.1 218.1,462.6 219.2,462.3 221.5,462.7 223.2,462.3 224,461.6 224.5,460.9 225,460.1 
		227.8,456.8 229.4,454.2 230,453 230.4,451 231.2,450.2 236.8,446.4 239.1,442.7 239,441.7 238.5,440.7 236.6,439.3 232,434.5 
		234.5,427.8 236.9,424.1 239,422.2 240.6,421.6 242.8,422.2 247.6,424.8 249.2,426.4 249.4,426.7 250,426.3 250.5,425.9 
		252.8,423.1 253.5,422.5 256,421.1 257.7,419.2 259.4,416.8 261.3,414.8 263.6,413.9 264.4,412.8 265.5,410.5 266.9,407.9 
		268.8,406.5 271.5,406.7 273.5,407.8 275.5,408.1 278.1,406 279.7,404.5 281.7,403.2 284,402.3 285.2,402.8 	"/>
	<path class="st1" d="M115.2,523l-0.9,0.6l-0.7,2.1l1.1,1.1l1.6-0.6l0.2-1.4l-0.6-1.2L115.2,523z M141.3,494.6L141.3,494.6
		L141.3,494.6l-4.3,3.2l-2.2,1l-5,0.4l-2.4,0.6l-4.1,3.2l-3,4.7l-5,10.6l1.1,3.6l0.7,3.7l1.2,2.4l2.7-0.2l-0.8,2.3l0.7,3.1l1.4,3
		l1.2,2v0.9l1.3-0.4l1,0.1l-0.9-3.4l-0.5-1l-0.4-0.6l-2.1-2.6l0-1.9l1.7-1.8l0.8-1.2l1.8-3.3l4.1-11l1.2-2.6l1.1-1.5l0.5-1.6
		l2.3-3.4l-1.2-1l-0.4-1.3l4.4-1.3l2.4-2.9l0.7-0.4l0.3-0.5L141.3,494.6z M106.2,528.9l3.6-4.2l6.5-13l5.7-8.2l2.3-4.3l1.5-1.3
		l10.1-1.1l5.2-3.9l-1-2.1l-0.5-0.8l-0.5-0.6l-0.8-0.6l-2.4-1l-0.8-0.6l-3.4-3.1l-0.6-0.9l-0.9-1.9l-0.8-0.6l-1-0.5l-0.6-0.8l0-0.9
		l1.7-1.2l1.4-0.5l3.5,0.2l1.9-0.5l1.6-1.5l-5.9-5.9l-0.9-2.2l-4.7,1.4l-8.1-2.4l0.2-2.3l-1.4-3.6l-3.3-0.8l-2.2-1l-1.7-0.3
		l-1.4,0.2l-0.8,0.4l-1.2,0.8l-2.5,3l-2.7,4.8l-2.3,2.8l-2.5,2l-1.9-1.8l-2.7-9.2l-1-1.7l-0.9-1.2l-0.8-0.5l-0.6,0.2l-1.6-0.3
		l-0.9,0.7l-5,2.9h-4.5l-1.1,0.1l0.8,3.9l-0.7,4.8l-0.5,5.7l-2.4,5.5l-1.4,4.1l-4.6,8.4l-0.5,4.1l-1.2,3.4l1.3,5.7l0.3,9.1
		l-3.9,12.2l-2.9,3l-1.4,1.7l-0.6,1.4v3.2l1.5,6.6l-0.8,2.6l0,3l2.4,0.8l5-0.7l2.9,0.5l5.2,2.2l4.6,2.9l2.1-2.6l2.1-1.7l7.6,0.7
		l6.7-1.2l6-1.9l1.7-3.6l-0.5-3.6l-0.2-5l-0.3-2.9l0.7-2.5L106.2,528.9z M111.9,525.2l-0.3,0.3l-0.7,0.6l-1.3,1.4l-1.2,2.2l-1,2.6
		l0.8,0.3l2.2-2.2l1.5-2.4l0.8-2.3l-0.1-1L111.9,525.2z M115.1,518.2l-0.5-0.9l-1,2.3l-0.2,2.4l0.8-0.8L115.1,518.2z"/>
	<path class="st2" d="M115.2,523l-0.9,0.6l-0.7,2.1l1.1,1.1l1.6-0.6l0.2-1.4l-0.6-1.2L115.2,523z M141.3,494.6L141.3,494.6
		L141.3,494.6l-4.3,3.2l-2.2,1l-5,0.4l-2.4,0.6l-4.1,3.2l-3,4.7l-5,10.6l1.1,3.6l0.7,3.7l1.2,2.4l2.7-0.2l-0.8,2.3l0.7,3.1l1.4,3
		l1.2,2v0.9l1.3-0.4l1,0.1l-0.9-3.4l-0.5-1l-0.4-0.6l-2.1-2.6l0-1.9l1.7-1.8l0.8-1.2l1.8-3.3l4.1-11l1.2-2.6l1.1-1.5l0.5-1.6
		l2.3-3.4l-1.2-1l-0.4-1.3l4.4-1.3l2.4-2.9l0.7-0.4l0.3-0.5L141.3,494.6z M106.2,528.9l3.6-4.2l6.5-13l5.7-8.2l2.3-4.3l1.5-1.3
		l10.1-1.1l5.2-3.9l-1-2.1l-0.5-0.8l-0.5-0.6l-0.8-0.6l-2.4-1l-0.8-0.6l-3.4-3.1l-0.6-0.9l-0.9-1.9l-0.8-0.6l-1-0.5l-0.6-0.8l0-0.9
		l1.7-1.2l1.4-0.5l3.5,0.2l1.9-0.5l1.6-1.5l-5.9-5.9l-0.9-2.2l-4.7,1.4l-8.1-2.4l0.2-2.3l-1.4-3.6l-3.3-0.8l-2.2-1l-1.7-0.3
		l-1.4,0.2l-0.8,0.4l-1.2,0.8l-2.5,3l-2.7,4.8l-2.3,2.8l-2.5,2l-1.9-1.8l-2.7-9.2l-1-1.7l-0.9-1.2l-0.8-0.5l-0.6,0.2l-1.6-0.3
		l-0.9,0.7l-5,2.9h-4.5l-1.1,0.1l0.8,3.9l-0.7,4.8l-0.5,5.7l-2.4,5.5l-1.4,4.1l-4.6,8.4l-0.5,4.1l-1.2,3.4l1.3,5.7l0.3,9.1
		l-3.9,12.2l-2.9,3l-1.4,1.7l-0.6,1.4v3.2l1.5,6.6l-0.8,2.6l0,3l2.4,0.8l5-0.7l2.9,0.5l5.2,2.2l4.6,2.9l2.1-2.6l2.1-1.7l7.6,0.7
		l6.7-1.2l6-1.9l1.7-3.6l-0.5-3.6l-0.2-5l-0.3-2.9l0.7-2.5L106.2,528.9z M111.9,525.2l-0.3,0.3l-0.7,0.6l-1.3,1.4l-1.2,2.2l-1,2.6
		l0.8,0.3l2.2-2.2l1.5-2.4l0.8-2.3l-0.1-1L111.9,525.2z M115.1,518.2l-0.5-0.9l-1,2.3l-0.2,2.4l0.8-0.8L115.1,518.2z"/>
	<path class="st1" d="M219.6,360.1l1.3-1.1l-4.9-7.9l-0.4-2.6l0.8-4.3l-0.4-1l-0.7-1.2l-0.7-0.6l-1.5-0.9l-3.6,4.8l-3.5-1.4l-5,4.5
		l-1.8,2.8l0.1,0.9l0.2,1.1l0.4,0.5l1.4,1.3l0.5,0.9l-0.3,1.3l-0.7,0.7l-1,0.1l-1.9-0.9l-1.2,0.2l-4.1,4.7l-4.8,1.8l-0.9,0l-0.8-0.3
		l0.5-0.5l0.9-0.6l0.6-1l0.2-1.3l-0.5-2l-1.1-2.9l-1.6-3.3l-0.8-0.7l-1-0.1l-0.2,0.8l-2.4-0.2l-3.8,3.3l-3.1,1.9l-2.2,2.7l-0.8,0.7
		l-0.6-0.5l-0.5-0.8l-0.2-1.2v-2.4l-0.2-1.4l-0.8-3.4l-0.7-0.9l-0.8-0.4l-0.7,0l-0.9,0.1l-0.8,0.4l-0.8,0.6l-1.8,3.1l-0.3,0.3
		l-0.6,0.3l-1.2,0.1l-0.8-0.3l-0.3-0.3l-1.1-1.6l-2-1.8l-1.4-0.9l-2.4-0.6l-2.3-0.2l-6-0.6l-2.9,1.3l-1.4,1l-1.2,0.2l-3.8-0.8
		l-1.6-0.8l-1.1-0.7l-3-1.4l-0.7-0.3l0,0l-10.6,31.2l-9.2,24.8l-0.7,5.8l-1.5,4.1l0.2,2.9l-0.2,2.6l-2.4,4.3l-1.2,2.4l-1.7,2.9
		l-3.4,2.2l-2.2,1.4l-1,1.7l-2.6,3.1l-1.9,3.1l1.9,1.8l0.9,2l-1.4,1.4l-1.2-0.3l-1.5-1.8l-2.4,0.2l-2.2,1.9l-8.6,5.7l-5.3-1.5
		l-1.3,0.4l0.9,1.5l4.2,4.4l1.4,3l0.8,3.6l1.1-0.1h4.5l4.9-2.9l0.9-0.7l1.5,0.3l0.6-0.2l0.8,0.5l0.9,1.2l1,1.7l2.7,9.2l1.9,1.8
		l2.5-2l2.3-2.8l2.7-4.7l2.5-3l1.2-0.8l0.8-0.4l1.3-0.2l1.7,0.3l2.2,1l3.3,0.8l-0.3-4.9l-0.7-2.7l0.5-1.8l2.6-4.4l2.3-0.6l1-0.7
		l1.1-1.5l3.7-7.8l1.6-1.6l3.4-1.3l7.7-0.6l5.7,0.6l1.7-1.2l0.2-1.1l0.2-0.5V430l-0.2-0.4l-0.8-1.6l-0.2-1.2l0.1-1l0.5-0.7l0.9,0
		l0.9,0.4l1.2,0l1-0.3l3-3.9l0.7-1.2l-1.4-4l-0.2-2.8l-1-4.8l2.5-2l1.1-0.6l1-0.7l0.9-0.9l0.4-1.4l-0.4-2.4l-0.9-1.2l-1-0.8
		l-0.8-0.8l-0.3-1.2l0-1.8l-0.3-2.7l0-1.2l0.6-1.3l0.6-1l5.4-2.4l2.1,0.6l1.4-0.3l2.1-1.1l5.7-4.2l1.6-0.5l1.1-0.1l1.6-1.2l1.8-0.6
		l1.6,6.4l0.3,1.7l0.8,3.6l0.2,1.2l0.3,0.9l0.1,0.7l2.1-0.7l4.8-1.8l1.5-0.4l2.6-1.1l2.3,0.3l0.6-0.3l-0.4-3L195,385l0.1-0.7
		l0.9,0.4l4.9,0.5l-0.6-1.7l0-0.7l0.9-1.4l0.8-0.6l0-0.9l-0.1-0.8l0.7-0.9l0.6-0.7l5.2-1.6l1.2,0.2l0.7-0.6l1-1.3l1-1.2l1.1-0.5
		l1-0.2l1.1-0.8l1.1-1.1l2.3-4.5l0.4-1.9l-0.1-0.2l-0.2-0.6l-0.3-0.8l0.6-1.6L219.6,360.1z M56.6,443.5l1.2-1.4l-0.8-0.2L56.6,443.5
		z"/>
	<path class="st2" d="M219.6,360.1l1.3-1.1l-4.9-7.9l-0.4-2.6l0.8-4.3l-0.4-1l-0.7-1.2l-0.7-0.6l-1.5-0.9l-3.6,4.8l-3.5-1.4l-5,4.5
		l-1.8,2.8l0.1,0.9l0.2,1.1l0.4,0.5l1.4,1.3l0.5,0.9l-0.3,1.3l-0.7,0.7l-1,0.1l-1.9-0.9l-1.2,0.2l-4.1,4.7l-4.8,1.8l-0.9,0l-0.8-0.3
		l0.5-0.5l0.9-0.6l0.6-1l0.2-1.3l-0.5-2l-1.1-2.9l-1.6-3.3l-0.8-0.7l-1-0.1l-0.2,0.8l-2.4-0.2l-3.8,3.3l-3.1,1.9l-2.2,2.7l-0.8,0.7
		l-0.6-0.5l-0.5-0.8l-0.2-1.2v-2.4l-0.2-1.4l-0.8-3.4l-0.7-0.9l-0.8-0.4l-0.7,0l-0.9,0.1l-0.8,0.4l-0.8,0.6l-1.8,3.1l-0.3,0.3
		l-0.6,0.3l-1.2,0.1l-0.8-0.3l-0.3-0.3l-1.1-1.6l-2-1.8l-1.4-0.9l-2.4-0.6l-2.3-0.2l-6-0.6l-2.9,1.3l-1.4,1l-1.2,0.2l-3.8-0.8
		l-1.6-0.8l-1.1-0.7l-3-1.4l-0.7-0.3l0,0l-10.6,31.2l-9.2,24.8l-0.7,5.8l-1.5,4.1l0.2,2.9l-0.2,2.6l-2.4,4.3l-1.2,2.4l-1.7,2.9
		l-3.4,2.2l-2.2,1.4l-1,1.7l-2.6,3.1l-1.9,3.1l1.9,1.8l0.9,2l-1.4,1.4l-1.2-0.3l-1.5-1.8l-2.4,0.2l-2.2,1.9l-8.6,5.7l-5.3-1.5
		l-1.3,0.4l0.9,1.5l4.2,4.4l1.4,3l0.8,3.6l1.1-0.1h4.5l4.9-2.9l0.9-0.7l1.5,0.3l0.6-0.2l0.8,0.5l0.9,1.2l1,1.7l2.7,9.2l1.9,1.8
		l2.5-2l2.3-2.8l2.7-4.7l2.5-3l1.2-0.8l0.8-0.4l1.3-0.2l1.7,0.3l2.2,1l3.3,0.8l-0.3-4.9l-0.7-2.7l0.5-1.8l2.6-4.4l2.3-0.6l1-0.7
		l1.1-1.5l3.7-7.8l1.6-1.6l3.4-1.3l7.7-0.6l5.7,0.6l1.7-1.2l0.2-1.1l0.2-0.5V430l-0.2-0.4l-0.8-1.6l-0.2-1.2l0.1-1l0.5-0.7l0.9,0
		l0.9,0.4l1.2,0l1-0.3l3-3.9l0.7-1.2l-1.4-4l-0.2-2.8l-1-4.8l2.5-2l1.1-0.6l1-0.7l0.9-0.9l0.4-1.4l-0.4-2.4l-0.9-1.2l-1-0.8
		l-0.8-0.8l-0.3-1.2l0-1.8l-0.3-2.7l0-1.2l0.6-1.3l0.6-1l5.4-2.4l2.1,0.6l1.4-0.3l2.1-1.1l5.7-4.2l1.6-0.5l1.1-0.1l1.6-1.2l1.8-0.6
		l1.6,6.4l0.3,1.7l0.8,3.6l0.2,1.2l0.3,0.9l0.1,0.7l2.1-0.7l4.8-1.8l1.5-0.4l2.6-1.1l2.3,0.3l0.6-0.3l-0.4-3L195,385l0.1-0.7
		l0.9,0.4l4.9,0.5l-0.6-1.7l0-0.7l0.9-1.4l0.8-0.6l0-0.9l-0.1-0.8l0.7-0.9l0.6-0.7l5.2-1.6l1.2,0.2l0.7-0.6l1-1.3l1-1.2l1.1-0.5
		l1-0.2l1.1-0.8l1.1-1.1l2.3-4.5l0.4-1.9l-0.1-0.2l-0.2-0.6l-0.3-0.8l0.6-1.6L219.6,360.1z M56.6,443.5l1.2-1.4l-0.8-0.2L56.6,443.5
		z"/>
	<polygon class="st1" points="358.7,192.8 358.7,192.9 358.2,195.8 356.9,197.8 357.2,199.8 358.3,201.5 362,205.5 363.7,208.2 
		366.2,214.5 367.2,217.8 368.1,219.1 369.9,219.6 371.2,220.5 371.8,222.5 371.3,224.5 369.4,225.1 369.2,229 369.3,230 
		369.7,231.6 369.6,232.5 369.3,233.4 369.1,234.9 369.1,237.9 369.3,240.1 370.8,245.1 371.7,250.3 372,253.1 372,254.9 
		371.2,257.6 368.4,262.6 367.7,265 368,267.7 369,269.2 370.3,270.6 371.5,272.7 372.2,275.4 371.9,277.2 369.1,281.1 367,286.5 
		367.6,291.6 370.4,296 374.3,299.7 372.3,303.4 371.2,304.5 366.2,308.3 365.4,309.1 365,310.3 364.9,311.6 364.8,312.8 
		364.5,313.7 362.3,315.2 360.1,315.4 357.8,315.2 357,315.3 356.9,315.3 356.5,314.7 355.2,313.4 353.4,312.1 350.5,310.6 
		349.8,310.5 348.6,310.4 346.7,310.9 344,311 341.4,310.5 340.3,309.6 339.2,307.5 338.7,306.4 338.1,305.7 337.3,305.4 336,306.6 
		335.3,307.7 334.8,309 334.5,310.1 333.7,310.9 332.2,311.5 326.6,311.5 321.3,313.4 318.3,312.8 315.9,312.2 314.6,311.7 
		313.9,311.5 313.1,311.1 312.7,310.6 312.5,309.8 312.8,308.6 314,307 315,305.9 315.9,304.7 317.4,300.7 318.4,291.5 317,290.9 
		316.1,290.8 314.1,291 312.9,291.4 312,291.5 309.4,294.5 305.7,295.5 304.4,295.7 301.6,294.8 297,291 291.1,296.6 289.5,299.4 
		289.3,300.5 288.4,302.6 287.6,303.7 286.5,304.6 282.6,305.4 279.6,304.3 277.4,307.7 274.8,310.4 271.7,312.3 268.6,313.7 
		264.2,317 262.7,317.6 260.8,317.9 258.5,318.8 256.7,316.2 253.5,314.3 254.8,311.3 255.4,308.9 256.2,307.3 257.3,306.1 
		259.9,304.2 260.2,303.2 259.9,302.3 258.2,300.8 257.4,299.7 256.4,294.1 256.5,292.7 255.8,292 253.8,291.6 252.8,290.9 
		252,289.4 252.3,288.4 253.1,287.6 254.2,287.2 255.1,286.7 255.8,285.7 256.3,284.3 256.1,283.2 255.5,282.1 254.7,281.5 
		253.5,278 254.7,276.8 258.2,276.3 259.4,275.9 262.5,273.6 266,272.5 269.7,269.7 274.6,267.8 282.5,266.5 282,263.3 284.7,254.8 
		286.4,252.9 286.9,249 284.9,246.3 282.3,244.6 281.1,242.3 282.4,240.7 282.7,239.8 282.7,238.7 282.3,237.7 281.7,236.7 
		278.8,234.4 277.8,233.2 277.7,232 278,231 279.4,229.2 280.7,226.7 282,222.5 282.5,221.8 283.4,220.9 284.8,220.2 287.7,220.5 
		288.9,220.9 290.6,222.3 294.6,226.6 295.2,227.2 296.1,228.2 298,228.3 299.2,226.6 301.8,220.4 301.9,218.7 301.6,217.2 
		301.1,216.3 300.6,213.1 302,212.4 306.5,213.4 310.2,210 311.2,207.3 311.3,205.6 311,204.4 310.4,203.5 309.4,203.1 308.3,202.4 
		307.3,201.5 306.5,199.7 306.4,198.8 306.8,198.1 309.6,198.3 311.1,197.2 310.5,193.1 310.9,190.2 312,185.6 315,175.5 
		324.1,174.8 327.9,175.9 330.3,175.8 331.3,174.2 335.8,171 337,170.4 335.9,173.7 335.4,174.8 335.9,175.4 336.6,176 337.4,176.5 
		338.2,176.7 339.3,177.1 339.3,178.2 338.7,179.7 338.6,181.1 339.2,183.1 340.1,185.2 341.4,186.8 351.7,192.1 356.7,192.4 
		358.6,192.8 	"/>
	<polygon class="st2" points="358.7,192.8 358.7,192.9 358.2,195.8 356.9,197.8 357.2,199.8 358.3,201.5 362,205.5 363.7,208.2 
		366.2,214.5 367.2,217.8 368.1,219.1 369.9,219.6 371.2,220.5 371.8,222.5 371.3,224.5 369.4,225.1 369.2,229 369.3,230 
		369.7,231.6 369.6,232.5 369.3,233.4 369.1,234.9 369.1,237.9 369.3,240.1 370.8,245.1 371.7,250.3 372,253.1 372,254.9 
		371.2,257.6 368.4,262.6 367.7,265 368,267.7 369,269.2 370.3,270.6 371.5,272.7 372.2,275.4 371.9,277.2 369.1,281.1 367,286.5 
		367.6,291.6 370.4,296 374.3,299.7 372.3,303.4 371.2,304.5 366.2,308.3 365.4,309.1 365,310.3 364.9,311.6 364.8,312.8 
		364.5,313.7 362.3,315.2 360.1,315.4 357.8,315.2 357,315.3 356.9,315.3 356.5,314.7 355.2,313.4 353.4,312.1 350.5,310.6 
		349.8,310.5 348.6,310.4 346.7,310.9 344,311 341.4,310.5 340.3,309.6 339.2,307.5 338.7,306.4 338.1,305.7 337.3,305.4 336,306.6 
		335.3,307.7 334.8,309 334.5,310.1 333.7,310.9 332.2,311.5 326.6,311.5 321.3,313.4 318.3,312.8 315.9,312.2 314.6,311.7 
		313.9,311.5 313.1,311.1 312.7,310.6 312.5,309.8 312.8,308.6 314,307 315,305.9 315.9,304.7 317.4,300.7 318.4,291.5 317,290.9 
		316.1,290.8 314.1,291 312.9,291.4 312,291.5 309.4,294.5 305.7,295.5 304.4,295.7 301.6,294.8 297,291 291.1,296.6 289.5,299.4 
		289.3,300.5 288.4,302.6 287.6,303.7 286.5,304.6 282.6,305.4 279.6,304.3 277.4,307.7 274.8,310.4 271.7,312.3 268.6,313.7 
		264.2,317 262.7,317.6 260.8,317.9 258.5,318.8 256.7,316.2 253.5,314.3 254.8,311.3 255.4,308.9 256.2,307.3 257.3,306.1 
		259.9,304.2 260.2,303.2 259.9,302.3 258.2,300.8 257.4,299.7 256.4,294.1 256.5,292.7 255.8,292 253.8,291.6 252.8,290.9 
		252,289.4 252.3,288.4 253.1,287.6 254.2,287.2 255.1,286.7 255.8,285.7 256.3,284.3 256.1,283.2 255.5,282.1 254.7,281.5 
		253.5,278 254.7,276.8 258.2,276.3 259.4,275.9 262.5,273.6 266,272.5 269.7,269.7 274.6,267.8 282.5,266.5 282,263.3 284.7,254.8 
		286.4,252.9 286.9,249 284.9,246.3 282.3,244.6 281.1,242.3 282.4,240.7 282.7,239.8 282.7,238.7 282.3,237.7 281.7,236.7 
		278.8,234.4 277.8,233.2 277.7,232 278,231 279.4,229.2 280.7,226.7 282,222.5 282.5,221.8 283.4,220.9 284.8,220.2 287.7,220.5 
		288.9,220.9 290.6,222.3 294.6,226.6 295.2,227.2 296.1,228.2 298,228.3 299.2,226.6 301.8,220.4 301.9,218.7 301.6,217.2 
		301.1,216.3 300.6,213.1 302,212.4 306.5,213.4 310.2,210 311.2,207.3 311.3,205.6 311,204.4 310.4,203.5 309.4,203.1 308.3,202.4 
		307.3,201.5 306.5,199.7 306.4,198.8 306.8,198.1 309.6,198.3 311.1,197.2 310.5,193.1 310.9,190.2 312,185.6 315,175.5 
		324.1,174.8 327.9,175.9 330.3,175.8 331.3,174.2 335.8,171 337,170.4 335.9,173.7 335.4,174.8 335.9,175.4 336.6,176 337.4,176.5 
		338.2,176.7 339.3,177.1 339.3,178.2 338.7,179.7 338.6,181.1 339.2,183.1 340.1,185.2 341.4,186.8 351.7,192.1 356.7,192.4 
		358.6,192.8 	"/>
	<path class="st1" d="M244,805l0.5,0.1l0-0.7l0.1-0.6l-0.6-0.5L244,805z M250,802.2l-0.3-0.4l-2.8,2.9l-2.3,0.9l-6.1-0.8v1.1l2.8,1
		l3.2,0.1l3-0.7l2.2-1.4l0.1-0.4l0.7-0.5l-0.3-1.1L250,802.2z M247.1,802.2l0.2-0.5l-0.7-0.1l-1.1,0.3h-0.9l-0.2,0.5l0.6,0.2
		l0.7,0.8l1.9-0.5l-0.6-0.2l-0.5-0.1l0.2-0.3L247.1,802.2z M302.9,775.2l-0.4-0.5l-0.2-0.6l-0.3-0.7l-1.8-6.5l-0.6-3.3l0.8-2.2
		l-1.2-4.8l-0.9-11.7l-2-4.6l0.3-1.7l-0.3-3.3l-0.7-3.6l-0.8-2.8l-0.6-0.9l-2-1.7l-0.9-1l-1-1.5l0,0l-2.9,0.6l-3.4,0l-2.4,1.3
		l-2.3,2.2l-1.3,0.9l-1,0.2l-0.7-0.3l-1.6-0.3l-0.7-0.4l-6.2-0.1l-9.2,3.9l-2.1,1.5l-0.8,0.5l-0.7,0.5l-0.7,0l-2.1,1.1l-1,0.3
		l-0.7,0.4l-0.2,1l-1.8,0.2l-2,1.3l-0.3,0.9l-0.6,1l-1.5,0.9l-3.2,0.6l-1.6,0l-3.8,0.6l-1.5,1.1l-0.5,1l-0.2,1l0.3,0.6l0.9,1.2v0.6
		l-0.9,0.3l-4.1,2.2l-2.6,2.1l-1.8,0.8l-1.2,0l-4.4-0.5l-2.3,0l-3.8-1.1l-8.2-6.2l-1.8-0.9l-1.4-1.7l-0.3-0.9l-0.3-2.1l-0.8-1.7
		l-2.9-0.8l-2.1,0.3l-1.1,0.7l-1.2-0.2l-1.3,0l-2.5,0.6l-4.5,1.6l-0.4,0.4l-0.7,1.1l-0.2,1.1l-0.6,1.4l-2,0.9l-2.1,0.9l-5.1-0.8
		l-1.7-0.8l-4.5-2.7l-1.4-0.2l-4.5,0.7l-1,0.4l-0.6,0.8l-0.6,0.8l-0.7,0.5l-1.1-0.2l-0.7-0.6l-3.1-1.5l-4.8-0.2l-0.9-0.5l-1.1-1
		l-1-1.2l-1.9-1.6l-1.8-0.5l-2.3-1.4l-1.4-1l-1,4.7l-2,4.9l-0.6,3.6l-3.3,3.7l-1.9,3.7l0.9,2.3l0.9,2.6l-1.7,6.5l-2.7,2.8l-2.1,2
		l1.1,4.4l-1.6,3.5l-1.7,4l-4.6,7.3l-0.6,0.9l-0.6,2l-0.8,4.1l1.8-0.8l1.3,0.8l1.3,1.3l1.8,0.7l1.2-0.5l2.3-2l1.2-0.5l1-0.7l2.1-2.1
		l2.3,0.9l2.6-2.3l2.8-0.7l1.8-0.1l1.5-0.7l3-1.9l1.4-0.4h7.2l3.7-4l1.5-1.1l1.7-0.5l5.5-0.4l5,0.9l6.2,3.5l0.2-0.2l5.1,1.9l5.1-0.6
		l3.5-1.6l4.4,1.6l4,1.4l9.4-1.4l4-0.2l3.7,1.7l4.8,1.1l8.3,4.7l4.2,3.6l2.6,3.9l-0.2-1.3l-0.4-0.9l-1.2-1.8l1.1,0.6l1.5,0.9
		l1.3,0.2l1-1.7l2,0.8l7.2,0.1l2.5,0.5l1.8,0.8l1.7,0l3.9-3.5l17.7-12.2l0.9-1.3l6.8-4.5l2-0.7l4.7-3.3l2.5-1l2.5-0.3l2.7,0.1
		l2.5,0.7l2,1.5l0.9-1.1v-0.9L302.9,775.2z"/>
	<path class="st2" d="M244,805l0.5,0.1l0-0.7l0.1-0.6l-0.6-0.5L244,805z M250,802.2l-0.3-0.4l-2.8,2.9l-2.3,0.9l-6.1-0.8v1.1l2.8,1
		l3.2,0.1l3-0.7l2.2-1.4l0.1-0.4l0.7-0.5l-0.3-1.1L250,802.2z M247.1,802.2l0.2-0.5l-0.7-0.1l-1.1,0.3h-0.9l-0.2,0.5l0.6,0.2
		l0.7,0.8l1.9-0.5l-0.6-0.2l-0.5-0.1l0.2-0.3L247.1,802.2z M302.9,775.2l-0.4-0.5l-0.2-0.6l-0.3-0.7l-1.8-6.5l-0.6-3.3l0.8-2.2
		l-1.2-4.8l-0.9-11.7l-2-4.6l0.3-1.7l-0.3-3.3l-0.7-3.6l-0.8-2.8l-0.6-0.9l-2-1.7l-0.9-1l-1-1.5l0,0l-2.9,0.6l-3.4,0l-2.4,1.3
		l-2.3,2.2l-1.3,0.9l-1,0.2l-0.7-0.3l-1.6-0.3l-0.7-0.4l-6.2-0.1l-9.2,3.9l-2.1,1.5l-0.8,0.5l-0.7,0.5l-0.7,0l-2.1,1.1l-1,0.3
		l-0.7,0.4l-0.2,1l-1.8,0.2l-2,1.3l-0.3,0.9l-0.6,1l-1.5,0.9l-3.2,0.6l-1.6,0l-3.8,0.6l-1.5,1.1l-0.5,1l-0.2,1l0.3,0.6l0.9,1.2v0.6
		l-0.9,0.3l-4.1,2.2l-2.6,2.1l-1.8,0.8l-1.2,0l-4.4-0.5l-2.3,0l-3.8-1.1l-8.2-6.2l-1.8-0.9l-1.4-1.7l-0.3-0.9l-0.3-2.1l-0.8-1.7
		l-2.9-0.8l-2.1,0.3l-1.1,0.7l-1.2-0.2l-1.3,0l-2.5,0.6l-4.5,1.6l-0.4,0.4l-0.7,1.1l-0.2,1.1l-0.6,1.4l-2,0.9l-2.1,0.9l-5.1-0.8
		l-1.7-0.8l-4.5-2.7l-1.4-0.2l-4.5,0.7l-1,0.4l-0.6,0.8l-0.6,0.8l-0.7,0.5l-1.1-0.2l-0.7-0.6l-3.1-1.5l-4.8-0.2l-0.9-0.5l-1.1-1
		l-1-1.2l-1.9-1.6l-1.8-0.5l-2.3-1.4l-1.4-1l-1,4.7l-2,4.9l-0.6,3.6l-3.3,3.7l-1.9,3.7l0.9,2.3l0.9,2.6l-1.7,6.5l-2.7,2.8l-2.1,2
		l1.1,4.4l-1.6,3.5l-1.7,4l-4.6,7.3l-0.6,0.9l-0.6,2l-0.8,4.1l1.8-0.8l1.3,0.8l1.3,1.3l1.8,0.7l1.2-0.5l2.3-2l1.2-0.5l1-0.7l2.1-2.1
		l2.3,0.9l2.6-2.3l2.8-0.7l1.8-0.1l1.5-0.7l3-1.9l1.4-0.4h7.2l3.7-4l1.5-1.1l1.7-0.5l5.5-0.4l5,0.9l6.2,3.5l0.2-0.2l5.1,1.9l5.1-0.6
		l3.5-1.6l4.4,1.6l4,1.4l9.4-1.4l4-0.2l3.7,1.7l4.8,1.1l8.3,4.7l4.2,3.6l2.6,3.9l-0.2-1.3l-0.4-0.9l-1.2-1.8l1.1,0.6l1.5,0.9
		l1.3,0.2l1-1.7l2,0.8l7.2,0.1l2.5,0.5l1.8,0.8l1.7,0l3.9-3.5l17.7-12.2l0.9-1.3l6.8-4.5l2-0.7l4.7-3.3l2.5-1l2.5-0.3l2.7,0.1
		l2.5,0.7l2,1.5l0.9-1.1v-0.9L302.9,775.2z"/>
	<polygon class="st1" points="221.8,508.4 222.5,508.1 222.8,507.2 222.8,506.3 223,505.5 223.1,505.1 223.2,505 223.3,504.9 
		224.6,504.4 226.4,504.1 227.5,504.4 228.1,504.8 228.2,504.9 230.8,507.7 231.1,509 231.2,511.2 231.1,512.9 231.5,513.2 
		234.4,513.6 235.4,513.4 236.3,512.9 237.2,512.2 237.8,511.3 239.7,510 242.3,509.5 243.6,510.5 248.9,517.8 252.2,520.1 
		253.4,520.2 254.7,520.2 255.7,520.1 258.2,520.2 262,518.8 263.1,517.7 264.9,515.3 265.9,515.4 267.7,516.5 268.7,516.8 
		269.8,516.2 270.9,516.1 272.1,516.4 274.7,517.4 275.6,517.2 276.3,516.9 276.8,516.3 277.3,515.3 278.1,514.1 279.8,512.7 
		281.5,512.2 283.9,511.6 285.7,510.9 286.8,510.1 287.3,509.1 287.3,508.1 286.9,507.3 286.1,506.1 287.6,505 288.2,505 
		288.5,504.9 288.6,505 289.2,506.4 293.9,508.4 295.8,510.2 296.5,511.7 296.8,514.3 297.1,515.2 297.2,516.8 299.7,519.1 
		300.7,522.1 300.9,524.1 302.6,526.6 302,528.8 302.8,530 304.3,532.9 305.4,533.9 307.1,534.9 309.2,534.9 309.7,535.1 
		311.5,534.6 313.8,532 316.4,529.9 319.8,528.7 322,528.6 323.4,529.3 324.8,530.2 325.2,531.3 325.3,533.3 325.1,534.3 323.4,537 
		323.1,537.8 323,539.2 323.9,540.2 323.9,540.2 318.7,544.5 318.5,545.1 317.5,547.1 317.1,548.2 316.3,553.3 316.1,556.7 
		316.1,558.3 316.3,559.5 316.9,560.4 317.6,560.8 318.3,561.4 318.7,562.5 318.1,564.6 313.2,571.7 311,579.3 309.9,581 311.2,583 
		311.1,584.7 310,586.4 308.3,588.2 309.9,589 313.2,591.5 325.6,607.5 326.1,608.3 326.9,610.3 327.4,611.3 328.2,612.1 
		330.2,613.6 330.8,614.3 335.5,626.4 336.6,627.5 336.1,627.7 335.4,628.3 334.3,628.7 332.5,628.5 331.1,627.5 330.1,626.5 
		329.1,624.3 328.7,623.2 327.4,620.2 327.2,619.1 326.9,618.1 326.2,617.4 323.2,615.9 320.8,613.5 320.3,612.5 320.1,611.4 
		319.8,610.3 319.3,609.2 318.7,608.5 318.3,607.8 318,607.2 317.9,606.5 317.8,606.1 317.5,605.5 316.6,605.3 315.7,605.4 
		312.7,606.7 311.9,606.7 311,607 307.2,609.1 303.5,610.1 303.3,611.1 303.2,612.1 302.7,613.5 301.9,614.9 300.7,615.8 
		300.2,616.5 298.3,617.4 298.1,618 294.8,619.7 292.8,621.7 291.3,624.3 291.1,625.3 289.8,625.6 284.5,625.4 281.9,624.6 
		279.7,624.1 272,623.9 270.3,623.4 262.9,619.2 259.8,618 253.9,617.4 244,612.9 241.3,609.7 237.9,608.3 236.9,608.1 235.6,607.9 
		233,609.3 232,609.3 230.9,609 229.7,608.1 228.3,606.5 227.7,606.2 226,606 223.4,606.3 214.7,606.1 214.3,607.5 209.9,604 
		207.7,603.2 206.6,603.2 205.5,603.1 204.5,602.7 202,601.3 200.4,600 197.9,599 197.2,598.6 197.2,597.4 199.1,594.1 199.5,591.4 
		198.9,590.2 198,589.6 196.3,588.8 195.8,588 195.8,587.2 196.3,586.7 196.3,585.8 194.7,581.7 194.6,580.8 194.6,580.3 
		194.5,580.2 194.5,580 193.9,579.2 192.4,577.6 190.1,574.8 189.1,574.3 186.9,574.8 184.2,576.6 182.5,577.2 179.2,577.3 
		177.7,576.7 176.7,576 176,575.3 175.6,574.5 174.8,573.9 173.7,573.8 173.3,574.4 173.5,575.1 173.7,576.1 173.5,576.8 
		172.8,577.3 169.9,576.3 166.5,575.8 162,573.1 158.6,572.6 157.9,569 157.5,567.8 157,566.9 156.9,565.4 157,564.3 161.2,558.8 
		171,551.9 172.9,549.6 173.8,548.2 174,546.4 173.9,545.4 175.2,543 174.9,541.5 174.2,541 169.3,540.1 174.9,535.3 180.1,534.3 
		181.3,533.4 183.7,531 184.9,530.6 186.3,530.8 187.1,530.5 187.8,530.2 188.3,529.6 188.8,528.8 189.1,527.9 189.4,527.2 
		190.1,527.1 192.2,527.9 193.7,528.1 195.1,527.5 196.2,527.5 196.9,527.7 197.5,527.3 197.7,526.6 198.2,525.9 199,525.9 
		199.8,526.5 203,529.8 204,530.6 207.7,531.4 208.9,531.8 209.6,532.6 210.1,533.5 210.2,534.4 210.6,535 211.3,535.1 211.9,534.9 
		212.5,535.3 213.1,537.2 213.6,538 215.5,539 217.6,537 218.2,534.9 218,533.6 217.2,532.8 216.2,532.4 215.3,532.2 213.5,530.2 
		212.7,528.8 212.7,527.7 213.4,525.1 212.8,524 212.3,523.5 210.9,523.3 204.8,520.5 204,520 203.1,519.2 202.8,518 203.2,517 
		203.9,516.2 204.6,515.2 205,513.9 205.3,512.3 205.4,509.9 205.8,508.5 206.3,507.6 206.9,507.4 208.5,507.3 209.2,506.8 
		210.2,504.9 212.5,502.8 214.5,502 215.3,501.4 216.2,501.2 219.5,501 221.2,501.7 221.2,502.5 220.9,503.4 220.5,505.4 221,507.5 
			"/>
	<polygon class="st2" points="221.8,508.4 222.5,508.1 222.8,507.2 222.8,506.3 223,505.5 223.1,505.1 223.2,505 223.3,504.9 
		224.6,504.4 226.4,504.1 227.5,504.4 228.1,504.8 228.2,504.9 230.8,507.7 231.1,509 231.2,511.2 231.1,512.9 231.5,513.2 
		234.4,513.6 235.4,513.4 236.3,512.9 237.2,512.2 237.8,511.3 239.7,510 242.3,509.5 243.6,510.5 248.9,517.8 252.2,520.1 
		253.4,520.2 254.7,520.2 255.7,520.1 258.2,520.2 262,518.8 263.1,517.7 264.9,515.3 265.9,515.4 267.7,516.5 268.7,516.8 
		269.8,516.2 270.9,516.1 272.1,516.4 274.7,517.4 275.6,517.2 276.3,516.9 276.8,516.3 277.3,515.3 278.1,514.1 279.8,512.7 
		281.5,512.2 283.9,511.6 285.7,510.9 286.8,510.1 287.3,509.1 287.3,508.1 286.9,507.3 286.1,506.1 287.6,505 288.2,505 
		288.5,504.9 288.6,505 289.2,506.4 293.9,508.4 295.8,510.2 296.5,511.7 296.8,514.3 297.1,515.2 297.2,516.8 299.7,519.1 
		300.7,522.1 300.9,524.1 302.6,526.6 302,528.8 302.8,530 304.3,532.9 305.4,533.9 307.1,534.9 309.2,534.9 309.7,535.1 
		311.5,534.6 313.8,532 316.4,529.9 319.8,528.7 322,528.6 323.4,529.3 324.8,530.2 325.2,531.3 325.3,533.3 325.1,534.3 323.4,537 
		323.1,537.8 323,539.2 323.9,540.2 323.9,540.2 318.7,544.5 318.5,545.1 317.5,547.1 317.1,548.2 316.3,553.3 316.1,556.7 
		316.1,558.3 316.3,559.5 316.9,560.4 317.6,560.8 318.3,561.4 318.7,562.5 318.1,564.6 313.2,571.7 311,579.3 309.9,581 311.2,583 
		311.1,584.7 310,586.4 308.3,588.2 309.9,589 313.2,591.5 325.6,607.5 326.1,608.3 326.9,610.3 327.4,611.3 328.2,612.1 
		330.2,613.6 330.8,614.3 335.5,626.4 336.6,627.5 336.1,627.7 335.4,628.3 334.3,628.7 332.5,628.5 331.1,627.5 330.1,626.5 
		329.1,624.3 328.7,623.2 327.4,620.2 327.2,619.1 326.9,618.1 326.2,617.4 323.2,615.9 320.8,613.5 320.3,612.5 320.1,611.4 
		319.8,610.3 319.3,609.2 318.7,608.5 318.3,607.8 318,607.2 317.9,606.5 317.8,606.1 317.5,605.5 316.6,605.3 315.7,605.4 
		312.7,606.7 311.9,606.7 311,607 307.2,609.1 303.5,610.1 303.3,611.1 303.2,612.1 302.7,613.5 301.9,614.9 300.7,615.8 
		300.2,616.5 298.3,617.4 298.1,618 294.8,619.7 292.8,621.7 291.3,624.3 291.1,625.3 289.8,625.6 284.5,625.4 281.9,624.6 
		279.7,624.1 272,623.9 270.3,623.4 262.9,619.2 259.8,618 253.9,617.4 244,612.9 241.3,609.7 237.9,608.3 236.9,608.1 235.6,607.9 
		233,609.3 232,609.3 230.9,609 229.7,608.1 228.3,606.5 227.7,606.2 226,606 223.4,606.3 214.7,606.1 214.3,607.5 209.9,604 
		207.7,603.2 206.6,603.2 205.5,603.1 204.5,602.7 202,601.3 200.4,600 197.9,599 197.2,598.6 197.2,597.4 199.1,594.1 199.5,591.4 
		198.9,590.2 198,589.6 196.3,588.8 195.8,588 195.8,587.2 196.3,586.7 196.3,585.8 194.7,581.7 194.6,580.8 194.6,580.3 
		194.5,580.2 194.5,580 193.9,579.2 192.4,577.6 190.1,574.8 189.1,574.3 186.9,574.8 184.2,576.6 182.5,577.2 179.2,577.3 
		177.7,576.7 176.7,576 176,575.3 175.6,574.5 174.8,573.9 173.7,573.8 173.3,574.4 173.5,575.1 173.7,576.1 173.5,576.8 
		172.8,577.3 169.9,576.3 166.5,575.8 162,573.1 158.6,572.6 157.9,569 157.5,567.8 157,566.9 156.9,565.4 157,564.3 161.2,558.8 
		171,551.9 172.9,549.6 173.8,548.2 174,546.4 173.9,545.4 175.2,543 174.9,541.5 174.2,541 169.3,540.1 174.9,535.3 180.1,534.3 
		181.3,533.4 183.7,531 184.9,530.6 186.3,530.8 187.1,530.5 187.8,530.2 188.3,529.6 188.8,528.8 189.1,527.9 189.4,527.2 
		190.1,527.1 192.2,527.9 193.7,528.1 195.1,527.5 196.2,527.5 196.9,527.7 197.5,527.3 197.7,526.6 198.2,525.9 199,525.9 
		199.8,526.5 203,529.8 204,530.6 207.7,531.4 208.9,531.8 209.6,532.6 210.1,533.5 210.2,534.4 210.6,535 211.3,535.1 211.9,534.9 
		212.5,535.3 213.1,537.2 213.6,538 215.5,539 217.6,537 218.2,534.9 218,533.6 217.2,532.8 216.2,532.4 215.3,532.2 213.5,530.2 
		212.7,528.8 212.7,527.7 213.4,525.1 212.8,524 212.3,523.5 210.9,523.3 204.8,520.5 204,520 203.1,519.2 202.8,518 203.2,517 
		203.9,516.2 204.6,515.2 205,513.9 205.3,512.3 205.4,509.9 205.8,508.5 206.3,507.6 206.9,507.4 208.5,507.3 209.2,506.8 
		210.2,504.9 212.5,502.8 214.5,502 215.3,501.4 216.2,501.2 219.5,501 221.2,501.7 221.2,502.5 220.9,503.4 220.5,505.4 221,507.5 
			"/>
	<path class="st1" d="M136.4,335.2l1.3,0.1l2.4-1.2l-3.7-2l-1.3-0.5l-0.6,0.3l-0.5-0.3l0.5,1.1l0.3,0.8L136.4,335.2z M264.4,337.1
		l-0.1-1l-0.6-1.6l-3.2-2.3l-2-2.4l-1.2-1.1l-0.6-1.1l-0.6-1.9l0.4-1.2l2.5-6l-1.8-2.7L254,314l1.3-3l0.6-2.4l0.8-1.6l1-1.2l2.7-1.9
		l0.3-1l-0.4-0.8l-1.7-1.5l-0.8-1.2l-1-5.6l0.1-1.4l-0.7-0.7l-2-0.4l-1-0.7l-0.8-1.5l0.4-1l0.8-0.7l1-0.4l1-0.5l0.7-1l0.5-1.4
		l-0.1-1.1l-0.7-1.1l-0.8-0.6l-1.2-3.5l-2.4,0.6l-1.2,0.8l-1.3,1.5l-4,3l-2.8,4.4l-2.1,1.1l-5.1,3.7l-6.3,2.7l-8.9,6.6L213,301l-5,1
		l-0.5,0.5l-0.3,0.7l-0.1,0.7l-0.3,0.7l-0.3,0.4l-0.7,0L205,304l-1.9-0.9l-1.8-1.6l-2.7-2l-3.6-1l-1.1-0.9l-1.3-0.5l-1,1.1l0.1,1.3
		l-1.4,1.9l-2.5-0.2l-0.8,0.3l-1,1.1l-0.7,1.3l-2.7,3.4l-0.5,1.4l-1.1,1.1l-0.9,0.6l-6.8-0.7l-0.8-1l-0.2-0.9l0-1.4l0.3-1.6l1-2.3
		l0.6-1l0.6-0.6l0.4-0.2l0.5-0.5l0.2-0.4l0.6-2.3l0.1-1l-0.2-1.1l-1.4-2.6l-0.6-3.1l-1.4,0.1l-1.8,0.8l-1.9,1.3l-1,0.5l-1-0.3
		l-0.8-1.1l-0.4-2.8l-0.1-1.5l0.7-3.8l-4.5-3.1l-2.5,3.9l-0.4,2.5l-0.9,1.6l-3.9-0.5L141.4,274l-0.2-0.3l-1.3,7.5l-7.8,30.7
		l-3.6,7.2l-1.5,4.3l0.2,3.3l1.2,2.3l2,1.3l5.4,0.7l2,0.8l1.8,1.3l1.9,1.8v1.1l-4.7-0.2l-1.9-0.9l-1.4-2l-1.7,2.2l-4,11.9l0,0
		l0.7,0.3l3,1.4l1.1,0.7l1.6,0.8l3.8,0.8l1.2-0.2l1.4-1l2.9-1.3l6,0.6l2.3,0.2l2.4,0.7l1.4,0.9l2,1.8l1.1,1.6l0.3,0.3l0.8,0.3
		l1.2-0.1l0.6-0.3l0.3-0.3l1.8-3.1l0.8-0.6l0.8-0.4l0.9-0.1l0.7,0l0.8,0.4l0.7,0.9l0.8,3.4l0.2,1.4v2.4l0.2,1.2l0.5,0.8l0.6,0.5
		l0.8-0.7l2.2-2.7l3.1-1.9l3.8-3.3l2.4,0.2l0.2-0.8l1,0.1l0.8,0.7l1.6,3.3l1.1,2.9l0.5,2l-0.2,1.3l-0.6,1l-0.9,0.6l-0.5,0.5l0.8,0.3
		l0.9,0l4.8-1.8l4.1-4.7l1.2-0.2l1.9,0.9l1-0.1l0.7-0.7l0.3-1.3l-0.5-0.9l-1.4-1.3l-0.4-0.5l-0.2-1.1l-0.1-0.9l1.8-2.8l5-4.5
		l3.5,1.4l3.6-4.8l1.5,0.9l0.7,0.6l0.7,1.2l0.4,1l-0.8,4.3l0.4,2.6l4.9,7.9l-1.3,1.1l-0.5,0.6l-0.6,1.6l0.3,0.8l0.2,0.6l0.1,0.2
		l-0.4,1.9l1.9-1.9l0.3-0.9l0.8-0.6l0.6-0.3l1.6-0.2l1.3-1.5l2.7-0.7l2,0.1l0.4-0.6l0.2-0.7l0.2-0.9l0.6-0.2l1.7-0.2l0.6-0.7
		l0.6-0.3l1-0.3l0.8,0.1l0.7,0.3l0.5,0.3l0.6-0.4l1.5-2.3l0.8-0.6l0.9-0.2l2.3,0l1.1-0.8l0.2-0.8l-0.5-2.1l0.4-1.3l1.4-1.6l2.8-1.4
		l1.7-0.3l1.4,0l1.1,0.3l1.1,0.5l2.3,1.9l0.3-3.1l-0.2-2.6l0.6-0.9l0.6-0.4l0.6,0.1l0.2,0.5l0.4,0.6l0.8,0.3l1.2-0.2l2.3-1.6l1-1
		l0.4-0.8l0.1-0.9L264.4,337.1z"/>
	<path class="st2" d="M136.4,335.2l1.3,0.1l2.4-1.2l-3.7-2l-1.3-0.5l-0.6,0.3l-0.5-0.3l0.5,1.1l0.3,0.8L136.4,335.2z M264.4,337.1
		l-0.1-1l-0.6-1.6l-3.2-2.3l-2-2.4l-1.2-1.1l-0.6-1.1l-0.6-1.9l0.4-1.2l2.5-6l-1.8-2.7L254,314l1.3-3l0.6-2.4l0.8-1.6l1-1.2l2.7-1.9
		l0.3-1l-0.4-0.8l-1.7-1.5l-0.8-1.2l-1-5.6l0.1-1.4l-0.7-0.7l-2-0.4l-1-0.7l-0.8-1.5l0.4-1l0.8-0.7l1-0.4l1-0.5l0.7-1l0.5-1.4
		l-0.1-1.1l-0.7-1.1l-0.8-0.6l-1.2-3.5l-2.4,0.6l-1.2,0.8l-1.3,1.5l-4,3l-2.8,4.4l-2.1,1.1l-5.1,3.7l-6.3,2.7l-8.9,6.6L213,301l-5,1
		l-0.5,0.5l-0.3,0.7l-0.1,0.7l-0.3,0.7l-0.3,0.4l-0.7,0L205,304l-1.9-0.9l-1.8-1.6l-2.7-2l-3.6-1l-1.1-0.9l-1.3-0.5l-1,1.1l0.1,1.3
		l-1.4,1.9l-2.5-0.2l-0.8,0.3l-1,1.1l-0.7,1.3l-2.7,3.4l-0.5,1.4l-1.1,1.1l-0.9,0.6l-6.8-0.7l-0.8-1l-0.2-0.9l0-1.4l0.3-1.6l1-2.3
		l0.6-1l0.6-0.6l0.4-0.2l0.5-0.5l0.2-0.4l0.6-2.3l0.1-1l-0.2-1.1l-1.4-2.6l-0.6-3.1l-1.4,0.1l-1.8,0.8l-1.9,1.3l-1,0.5l-1-0.3
		l-0.8-1.1l-0.4-2.8l-0.1-1.5l0.7-3.8l-4.5-3.1l-2.5,3.9l-0.4,2.5l-0.9,1.6l-3.9-0.5L141.4,274l-0.2-0.3l-1.3,7.5l-7.8,30.7
		l-3.6,7.2l-1.5,4.3l0.2,3.3l1.2,2.3l2,1.3l5.4,0.7l2,0.8l1.8,1.3l1.9,1.8v1.1l-4.7-0.2l-1.9-0.9l-1.4-2l-1.7,2.2l-4,11.9l0,0
		l0.7,0.3l3,1.4l1.1,0.7l1.6,0.8l3.8,0.8l1.2-0.2l1.4-1l2.9-1.3l6,0.6l2.3,0.2l2.4,0.7l1.4,0.9l2,1.8l1.1,1.6l0.3,0.3l0.8,0.3
		l1.2-0.1l0.6-0.3l0.3-0.3l1.8-3.1l0.8-0.6l0.8-0.4l0.9-0.1l0.7,0l0.8,0.4l0.7,0.9l0.8,3.4l0.2,1.4v2.4l0.2,1.2l0.5,0.8l0.6,0.5
		l0.8-0.7l2.2-2.7l3.1-1.9l3.8-3.3l2.4,0.2l0.2-0.8l1,0.1l0.8,0.7l1.6,3.3l1.1,2.9l0.5,2l-0.2,1.3l-0.6,1l-0.9,0.6l-0.5,0.5l0.8,0.3
		l0.9,0l4.8-1.8l4.1-4.7l1.2-0.2l1.9,0.9l1-0.1l0.7-0.7l0.3-1.3l-0.5-0.9l-1.4-1.3l-0.4-0.5l-0.2-1.1l-0.1-0.9l1.8-2.8l5-4.5
		l3.5,1.4l3.6-4.8l1.5,0.9l0.7,0.6l0.7,1.2l0.4,1l-0.8,4.3l0.4,2.6l4.9,7.9l-1.3,1.1l-0.5,0.6l-0.6,1.6l0.3,0.8l0.2,0.6l0.1,0.2
		l-0.4,1.9l1.9-1.9l0.3-0.9l0.8-0.6l0.6-0.3l1.6-0.2l1.3-1.5l2.7-0.7l2,0.1l0.4-0.6l0.2-0.7l0.2-0.9l0.6-0.2l1.7-0.2l0.6-0.7
		l0.6-0.3l1-0.3l0.8,0.1l0.7,0.3l0.5,0.3l0.6-0.4l1.5-2.3l0.8-0.6l0.9-0.2l2.3,0l1.1-0.8l0.2-0.8l-0.5-2.1l0.4-1.3l1.4-1.6l2.8-1.4
		l1.7-0.3l1.4,0l1.1,0.3l1.1,0.5l2.3,1.9l0.3-3.1l-0.2-2.6l0.6-0.9l0.6-0.4l0.6,0.1l0.2,0.5l0.4,0.6l0.8,0.3l1.2-0.2l2.3-1.6l1-1
		l0.4-0.8l0.1-0.9L264.4,337.1z"/>
	<polygon class="st1" points="321.4,313 326.7,311 332.3,311.1 333.8,310.5 334.6,309.6 334.8,308.5 335.4,307.3 336.1,306.2 
		337.4,305 338.1,305.3 338.8,306 339.3,307.1 340.4,309.1 341.4,310.1 344.1,310.6 346.8,310.5 348.7,309.9 349.9,310.1 
		350.6,310.2 353.5,311.7 355.3,312.9 356.5,314.3 357,314.8 357,314.9 355.6,315.1 350.5,318.5 348.4,319.4 347.4,320.8 
		346.2,324.4 345.2,326.2 346.2,328.4 347,333.7 348.4,335.7 349.8,336.2 352.9,336.6 354.2,337.1 355.5,338.2 357,340.8 359.6,344 
		364.4,352.6 362.3,355.9 361.8,357.6 362,359.2 361.5,360.6 360.9,364.4 360.5,365 359.4,365.8 359,366.5 359,367.4 359.5,368.9 
		359.4,369.7 359.2,371.1 359.1,373.6 358.7,375.1 355.8,379.5 354.7,380.2 352,381.3 351.1,382.1 350.2,384.1 350.4,385.8 
		350.9,387.2 351.1,388.5 350.6,389.9 349.2,392.4 348.7,393.9 348.7,395.3 349,396.3 349.1,397.4 347.8,400.7 346.1,401.4 
		328.8,403.6 325.2,403.4 322.7,401.8 320.7,402.5 316,402.3 313.8,402.8 311.9,403.6 310.3,404.1 285,402.9 285.2,403.3 
		285.1,403.2 284,402.8 281.6,403.6 279.6,405 278.1,406.5 275.4,408.6 273.5,408.3 271.5,407.2 268.8,407 266.9,408.4 265.4,410.9 
		264.4,413.3 263.6,414.4 261.3,415.2 259.4,417.3 257.7,419.7 256,421.5 254.9,420 254.1,417.4 253.6,416.3 251.2,412.4 
		248.7,409.5 246.6,408.2 244.9,406.8 242.5,405.9 241,405.7 239.8,405.4 239,404.9 238.7,403.7 238.8,401.3 238.7,399 238.5,397.9 
		238.5,396.7 238.3,395.6 237.9,394.7 237.3,394 234.4,394 230.7,392.7 228.2,393.1 227.7,394.2 226.3,402 225.4,403.5 224.8,405.5 
		224.9,407.2 225.7,409.5 225.9,410.5 225.9,411.3 223.4,412.2 219.3,412.7 216.8,412.5 213.9,410.5 207.4,407.9 206.3,406 
		205.8,400.5 205.8,397.6 206.6,396.3 206.5,393.4 206.5,392.7 206.5,391.9 206.4,391.2 205.9,390.3 205.2,389.5 203.9,388.8 
		202.3,388.5 201.1,387.7 200.5,385.3 199.9,383.6 199.8,382.9 200.7,381.5 201.5,380.9 201.5,380 201.5,379.3 202.1,378.4 
		202.7,377.7 207.9,376.1 209.1,376.3 209.8,375.6 210.7,374.3 211.8,373.1 212.8,372.6 213.8,372.4 214.9,371.6 216.1,370.6 
		218.4,366 220.2,364.1 220.5,363.2 221.3,362.6 221.9,362.4 223.5,362.1 224.8,360.6 227.4,359.9 229.4,360 229.8,359.3 230,358.6 
		230.1,357.7 230.7,357.5 232.4,357.4 233.1,356.7 233.7,356.4 234.7,356.1 235.5,356.2 236.2,356.5 236.7,356.8 237.3,356.3 
		238.8,354.1 239.7,353.5 240.6,353.3 242.8,353.3 244,352.5 244.2,351.7 243.6,349.6 244,348.4 245.5,346.8 248.2,345.4 
		249.9,345.1 251.3,345.1 252.4,345.4 253.5,345.8 255.7,347.7 256,344.7 255.9,342.1 256.5,341.2 257,340.8 257.6,341 257.8,341.5 
		258.2,342.1 259,342.3 260.2,342.1 262.6,340.5 263.6,339.5 264,338.7 264.1,337.8 264.1,336.9 263.9,335.9 263.4,334.3 
		260.2,332.1 258.2,329.6 257,328.6 256.4,327.5 255.8,325.6 256.1,324.4 258.7,318.4 260.9,317.4 262.9,317.2 264.3,316.6 
		268.7,313.3 271.9,311.9 274.9,310 277.5,307.3 279.8,303.9 282.7,305 286.6,304.2 287.8,303.2 288.6,302.2 289.4,300.1 289.6,299 
		291.2,296.2 297.2,290.5 301.8,294.4 304.5,295.2 305.8,295.1 309.5,294 312.1,291.1 313,290.9 314.2,290.6 316.2,290.4 
		317.1,290.5 318.5,291.1 317.5,300.2 316,304.3 315.1,305.4 314.1,306.5 312.9,308.2 312.6,309.3 312.8,310.2 313.2,310.7 
		314,311.1 314.7,311.3 316,311.8 318.4,312.3 	"/>
	<polygon class="st2" points="321.4,313 326.7,311 332.3,311.1 333.8,310.5 334.6,309.6 334.8,308.5 335.4,307.3 336.1,306.2 
		337.4,305 338.1,305.3 338.8,306 339.3,307.1 340.4,309.1 341.4,310.1 344.1,310.6 346.8,310.5 348.7,309.9 349.9,310.1 
		350.6,310.2 353.5,311.7 355.3,312.9 356.5,314.3 357,314.8 357,314.9 355.6,315.1 350.5,318.5 348.4,319.4 347.4,320.8 
		346.2,324.4 345.2,326.2 346.2,328.4 347,333.7 348.4,335.7 349.8,336.2 352.9,336.6 354.2,337.1 355.5,338.2 357,340.8 359.6,344 
		364.4,352.6 362.3,355.9 361.8,357.6 362,359.2 361.5,360.6 360.9,364.4 360.5,365 359.4,365.8 359,366.5 359,367.4 359.5,368.9 
		359.4,369.7 359.2,371.1 359.1,373.6 358.7,375.1 355.8,379.5 354.7,380.2 352,381.3 351.1,382.1 350.2,384.1 350.4,385.8 
		350.9,387.2 351.1,388.5 350.6,389.9 349.2,392.4 348.7,393.9 348.7,395.3 349,396.3 349.1,397.4 347.8,400.7 346.1,401.4 
		328.8,403.6 325.2,403.4 322.7,401.8 320.7,402.5 316,402.3 313.8,402.8 311.9,403.6 310.3,404.1 285,402.9 285.2,403.3 
		285.1,403.2 284,402.8 281.6,403.6 279.6,405 278.1,406.5 275.4,408.6 273.5,408.3 271.5,407.2 268.8,407 266.9,408.4 265.4,410.9 
		264.4,413.3 263.6,414.4 261.3,415.2 259.4,417.3 257.7,419.7 256,421.5 254.9,420 254.1,417.4 253.6,416.3 251.2,412.4 
		248.7,409.5 246.6,408.2 244.9,406.8 242.5,405.9 241,405.7 239.8,405.4 239,404.9 238.7,403.7 238.8,401.3 238.7,399 238.5,397.9 
		238.5,396.7 238.3,395.6 237.9,394.7 237.3,394 234.4,394 230.7,392.7 228.2,393.1 227.7,394.2 226.3,402 225.4,403.5 224.8,405.5 
		224.9,407.2 225.7,409.5 225.9,410.5 225.9,411.3 223.4,412.2 219.3,412.7 216.8,412.5 213.9,410.5 207.4,407.9 206.3,406 
		205.8,400.5 205.8,397.6 206.6,396.3 206.5,393.4 206.5,392.7 206.5,391.9 206.4,391.2 205.9,390.3 205.2,389.5 203.9,388.8 
		202.3,388.5 201.1,387.7 200.5,385.3 199.9,383.6 199.8,382.9 200.7,381.5 201.5,380.9 201.5,380 201.5,379.3 202.1,378.4 
		202.7,377.7 207.9,376.1 209.1,376.3 209.8,375.6 210.7,374.3 211.8,373.1 212.8,372.6 213.8,372.4 214.9,371.6 216.1,370.6 
		218.4,366 220.2,364.1 220.5,363.2 221.3,362.6 221.9,362.4 223.5,362.1 224.8,360.6 227.4,359.9 229.4,360 229.8,359.3 230,358.6 
		230.1,357.7 230.7,357.5 232.4,357.4 233.1,356.7 233.7,356.4 234.7,356.1 235.5,356.2 236.2,356.5 236.7,356.8 237.3,356.3 
		238.8,354.1 239.7,353.5 240.6,353.3 242.8,353.3 244,352.5 244.2,351.7 243.6,349.6 244,348.4 245.5,346.8 248.2,345.4 
		249.9,345.1 251.3,345.1 252.4,345.4 253.5,345.8 255.7,347.7 256,344.7 255.9,342.1 256.5,341.2 257,340.8 257.6,341 257.8,341.5 
		258.2,342.1 259,342.3 260.2,342.1 262.6,340.5 263.6,339.5 264,338.7 264.1,337.8 264.1,336.9 263.9,335.9 263.4,334.3 
		260.2,332.1 258.2,329.6 257,328.6 256.4,327.5 255.8,325.6 256.1,324.4 258.7,318.4 260.9,317.4 262.9,317.2 264.3,316.6 
		268.7,313.3 271.9,311.9 274.9,310 277.5,307.3 279.8,303.9 282.7,305 286.6,304.2 287.8,303.2 288.6,302.2 289.4,300.1 289.6,299 
		291.2,296.2 297.2,290.5 301.8,294.4 304.5,295.2 305.8,295.1 309.5,294 312.1,291.1 313,290.9 314.2,290.6 316.2,290.4 
		317.1,290.5 318.5,291.1 317.5,300.2 316,304.3 315.1,305.4 314.1,306.5 312.9,308.2 312.6,309.3 312.8,310.2 313.2,310.7 
		314,311.1 314.7,311.3 316,311.8 318.4,312.3 	"/>
	<polygon class="st1" points="344,53.5 348.1,51.6 350.9,49.6 351.9,50.2 353.5,51 356.4,53.3 359.7,53.9 367,53.3 369.7,51.6 
		370.5,46.9 374.1,47.5 378.3,54.2 381.8,55.2 390.2,54.9 394.2,53.6 395.7,50.3 398.6,51.5 400.1,53.4 400.6,56 399.7,62.8 
		400.6,63.9 402.7,64.2 405.7,65.2 404.4,68.2 401.5,81 401,82.5 400.2,83.8 399.5,85.3 399.8,86.6 400.6,88 401.2,89.5 401.5,92.4 
		402.1,95.5 403.7,98 407,99.2 408.2,98.9 409.9,98 411.6,96.9 412.3,95.9 413.1,95.2 414.7,95.2 424.3,97.2 430,99.3 435.2,102.8 
		440.2,108 441.8,110.3 443,111.9 437.4,120.1 434.4,123.3 433.6,124.9 433.7,126.1 434,127.2 434,128.2 429.5,135.4 429.5,136.8 
		425.8,137 424.2,137.7 422.7,138.9 423.1,139 423.1,139.9 423,141.1 422.7,142 422.2,142.2 420.8,141.9 420.3,142 416.6,148 
		412.9,151.9 410.6,153.6 409,154.9 402.2,157.9 401.1,158.7 393.4,158.8 391.4,159.1 390,160.7 385.8,167 385,169.3 384.3,170.6 
		380.2,174.1 378.6,176.1 378.2,177.2 378.5,181 377.5,183.9 372.9,190.8 371.3,192.4 368.1,192.7 360.9,192.1 358.5,193.3 
		358.4,193.3 356.5,192.8 351.5,192.6 341.1,187.3 339.9,185.7 338.9,183.6 338.4,181.5 338.5,180.1 339,178.7 339.1,177.6 
		338,177.2 337.1,177 336.4,176.5 335.7,175.9 335.2,175.2 335.7,174.2 336.8,170.9 335.6,171.5 331.1,174.7 330,176.3 327.7,176.3 
		323.9,175.2 314.7,176 311.7,176.3 307.8,175 306.3,173.6 302.8,168.5 301,167.2 299.3,167.2 300,165.1 300.2,164.4 300.7,163.5 
		301.8,163 303.5,162.7 303.9,162.5 303.7,161.6 303.7,160.6 303.7,159.3 304.2,157.3 305.3,155.9 306.4,154.6 306.7,153.9 
		306.4,153 306.7,151.3 308.7,149.2 312.8,147.8 310,146.2 309,144.9 308.2,142.8 307.5,139.6 307.5,131.9 311.4,129 312.4,128.6 
		313.4,128 314.4,126.7 315.3,124.2 316.7,121.5 317.8,120.2 318.9,119.7 320,119.7 321,119.4 321.9,119 322.3,118.1 322.1,117.1 
		321.6,116.1 321,115.1 320.4,114 320.1,112.7 319.9,110.7 320.4,106.5 324.2,93.4 327.1,87.2 328.1,86.2 328.8,85.9 329.4,85 
		329.7,84.1 329.7,81.9 329.6,80.7 327.4,77.7 326.4,74.8 326.1,73.3 325.8,70.5 326.1,67.3 326.3,65.7 325.7,62.6 325.4,61.8 
		326.8,59.9 327,57.4 326.3,52.3 326.5,50.1 327.4,49.1 329.2,47.7 331.2,46.6 332.9,46.3 336.7,48.7 340.3,51.8 	"/>
	<polygon class="st2" points="344,53.5 348.1,51.6 350.9,49.6 351.9,50.2 353.5,51 356.4,53.3 359.7,53.9 367,53.3 369.7,51.6 
		370.5,46.9 374.1,47.5 378.3,54.2 381.8,55.2 390.2,54.9 394.2,53.6 395.7,50.3 398.6,51.5 400.1,53.4 400.6,56 399.7,62.8 
		400.6,63.9 402.7,64.2 405.7,65.2 404.4,68.2 401.5,81 401,82.5 400.2,83.8 399.5,85.3 399.8,86.6 400.6,88 401.2,89.5 401.5,92.4 
		402.1,95.5 403.7,98 407,99.2 408.2,98.9 409.9,98 411.6,96.9 412.3,95.9 413.1,95.2 414.7,95.2 424.3,97.2 430,99.3 435.2,102.8 
		440.2,108 441.8,110.3 443,111.9 437.4,120.1 434.4,123.3 433.6,124.9 433.7,126.1 434,127.2 434,128.2 429.5,135.4 429.5,136.8 
		425.8,137 424.2,137.7 422.7,138.9 423.1,139 423.1,139.9 423,141.1 422.7,142 422.2,142.2 420.8,141.9 420.3,142 416.6,148 
		412.9,151.9 410.6,153.6 409,154.9 402.2,157.9 401.1,158.7 393.4,158.8 391.4,159.1 390,160.7 385.8,167 385,169.3 384.3,170.6 
		380.2,174.1 378.6,176.1 378.2,177.2 378.5,181 377.5,183.9 372.9,190.8 371.3,192.4 368.1,192.7 360.9,192.1 358.5,193.3 
		358.4,193.3 356.5,192.8 351.5,192.6 341.1,187.3 339.9,185.7 338.9,183.6 338.4,181.5 338.5,180.1 339,178.7 339.1,177.6 
		338,177.2 337.1,177 336.4,176.5 335.7,175.9 335.2,175.2 335.7,174.2 336.8,170.9 335.6,171.5 331.1,174.7 330,176.3 327.7,176.3 
		323.9,175.2 314.7,176 311.7,176.3 307.8,175 306.3,173.6 302.8,168.5 301,167.2 299.3,167.2 300,165.1 300.2,164.4 300.7,163.5 
		301.8,163 303.5,162.7 303.9,162.5 303.7,161.6 303.7,160.6 303.7,159.3 304.2,157.3 305.3,155.9 306.4,154.6 306.7,153.9 
		306.4,153 306.7,151.3 308.7,149.2 312.8,147.8 310,146.2 309,144.9 308.2,142.8 307.5,139.6 307.5,131.9 311.4,129 312.4,128.6 
		313.4,128 314.4,126.7 315.3,124.2 316.7,121.5 317.8,120.2 318.9,119.7 320,119.7 321,119.4 321.9,119 322.3,118.1 322.1,117.1 
		321.6,116.1 321,115.1 320.4,114 320.1,112.7 319.9,110.7 320.4,106.5 324.2,93.4 327.1,87.2 328.1,86.2 328.8,85.9 329.4,85 
		329.7,84.1 329.7,81.9 329.6,80.7 327.4,77.7 326.4,74.8 326.1,73.3 325.8,70.5 326.1,67.3 326.3,65.7 325.7,62.6 325.4,61.8 
		326.8,59.9 327,57.4 326.3,52.3 326.5,50.1 327.4,49.1 329.2,47.7 331.2,46.6 332.9,46.3 336.7,48.7 340.3,51.8 	"/>
	<polygon class="st1" points="221.3,92.8 222.7,92.5 223.5,92.2 224.3,92.1 225.2,92.1 226.3,92.3 227.1,92.1 229.4,91.1 
		230.1,91.2 230.9,91.5 234,93.5 234.6,94 234.9,95 234.4,96.9 234.1,98.4 233.7,105.5 236,106.5 237.4,106.8 238.5,107.4 
		239.6,107.8 244.2,108.8 245.6,108.8 249.1,107.8 251.6,105 252.8,105.7 253.4,106.4 255.3,110 255.1,111.8 250.4,118.9 249,120.5 
		246.8,121.5 246.4,121.9 245.8,123.8 244.5,125 243.6,124.7 243,124.8 242.4,125.2 241.4,126.7 240.3,130.4 240.8,131.6 
		240.7,132.4 240.3,133.5 238.6,136.4 238.2,137.5 237.7,137.9 237.3,138.1 237.1,138.6 237.3,139.7 237.4,140.5 236.4,143.3 
		235.9,144.9 235.7,145.5 235.3,146.3 234.7,146.9 234.1,147.3 233.3,148 232.8,148.6 232.2,149.2 231.3,149.9 230.5,150.3 
		229.2,150.4 227.9,149.3 225.4,147.8 224.1,148.1 220.4,146.5 216.2,143.3 216.4,141.9 216,141 213.6,138.5 207.8,136.3 206,139 
		203.7,140.7 200.1,142.5 199.2,142.7 196.5,143.8 195.7,143.8 194.1,142.7 193.1,142.3 188.3,143 184.7,143.9 181.8,143.5 
		181,142.9 180.1,142.4 178.6,142.4 176.6,142.9 174.4,144.2 173.5,144.9 172.7,145.7 171.7,145.9 170.8,146.2 164.2,146.2 
		163,146.5 162.6,146.5 161.8,146.1 161.1,144.9 160.7,142.8 160.5,141.6 161.4,140.4 162.5,140.1 163.2,139.7 163.5,138.9 
		163.1,138 162,136.9 160.6,136.6 159,135.6 157,133.5 156.3,132.6 155.3,131.7 154.1,131.3 151.2,131.2 148.1,129.7 145.3,128 
		142.6,128 142.6,127.9 141.3,124.3 141,121.1 140.5,118.9 140.2,116.2 138.7,111.5 138.2,107.9 137.4,105.3 137.3,104.4 
		137.9,104.5 140.2,104.8 141.3,104.7 149.9,101.5 155.9,101.3 156.9,101.1 157.8,100.3 158.2,99.6 158.8,99.2 159.8,99.9 
		163.2,101.1 165.6,101.5 166.9,102.3 168,102.6 168.7,102.7 170.8,99 170.3,97.3 170.5,96.3 171.1,95.3 172.1,94.2 172.5,93.2 
		172.7,92 173,89.6 173.2,88.4 173.5,87.2 174.5,86.2 175.1,85.8 176,85.5 177,85.8 177.9,85.8 179.9,85 182,83.2 182.9,82.7 
		184.5,82 186.3,81.6 196.5,81.1 199.4,80 210.5,73.9 212,73.9 212.4,73.8 212.5,73.7 212.4,74 222.5,74.7 227.6,73.2 227.9,73.5 
		227.9,74.3 227.7,75.3 227.1,76.2 226.5,77.3 225.7,81.8 224.6,83.8 223.5,87.1 222.9,88.6 222.3,89.6 219.6,92.7 	"/>
	<polygon class="st2" points="221.3,92.8 222.7,92.5 223.5,92.2 224.3,92.1 225.2,92.1 226.3,92.3 227.1,92.1 229.4,91.1 
		230.1,91.2 230.9,91.5 234,93.5 234.6,94 234.9,95 234.4,96.9 234.1,98.4 233.7,105.5 236,106.5 237.4,106.8 238.5,107.4 
		239.6,107.8 244.2,108.8 245.6,108.8 249.1,107.8 251.6,105 252.8,105.7 253.4,106.4 255.3,110 255.1,111.8 250.4,118.9 249,120.5 
		246.8,121.5 246.4,121.9 245.8,123.8 244.5,125 243.6,124.7 243,124.8 242.4,125.2 241.4,126.7 240.3,130.4 240.8,131.6 
		240.7,132.4 240.3,133.5 238.6,136.4 238.2,137.5 237.7,137.9 237.3,138.1 237.1,138.6 237.3,139.7 237.4,140.5 236.4,143.3 
		235.9,144.9 235.7,145.5 235.3,146.3 234.7,146.9 234.1,147.3 233.3,148 232.8,148.6 232.2,149.2 231.3,149.9 230.5,150.3 
		229.2,150.4 227.9,149.3 225.4,147.8 224.1,148.1 220.4,146.5 216.2,143.3 216.4,141.9 216,141 213.6,138.5 207.8,136.3 206,139 
		203.7,140.7 200.1,142.5 199.2,142.7 196.5,143.8 195.7,143.8 194.1,142.7 193.1,142.3 188.3,143 184.7,143.9 181.8,143.5 
		181,142.9 180.1,142.4 178.6,142.4 176.6,142.9 174.4,144.2 173.5,144.9 172.7,145.7 171.7,145.9 170.8,146.2 164.2,146.2 
		163,146.5 162.6,146.5 161.8,146.1 161.1,144.9 160.7,142.8 160.5,141.6 161.4,140.4 162.5,140.1 163.2,139.7 163.5,138.9 
		163.1,138 162,136.9 160.6,136.6 159,135.6 157,133.5 156.3,132.6 155.3,131.7 154.1,131.3 151.2,131.2 148.1,129.7 145.3,128 
		142.6,128 142.6,127.9 141.3,124.3 141,121.1 140.5,118.9 140.2,116.2 138.7,111.5 138.2,107.9 137.4,105.3 137.3,104.4 
		137.9,104.5 140.2,104.8 141.3,104.7 149.9,101.5 155.9,101.3 156.9,101.1 157.8,100.3 158.2,99.6 158.8,99.2 159.8,99.9 
		163.2,101.1 165.6,101.5 166.9,102.3 168,102.6 168.7,102.7 170.8,99 170.3,97.3 170.5,96.3 171.1,95.3 172.1,94.2 172.5,93.2 
		172.7,92 173,89.6 173.2,88.4 173.5,87.2 174.5,86.2 175.1,85.8 176,85.5 177,85.8 177.9,85.8 179.9,85 182,83.2 182.9,82.7 
		184.5,82 186.3,81.6 196.5,81.1 199.4,80 210.5,73.9 212,73.9 212.4,73.8 212.5,73.7 212.4,74 222.5,74.7 227.6,73.2 227.9,73.5 
		227.9,74.3 227.7,75.3 227.1,76.2 226.5,77.3 225.7,81.8 224.6,83.8 223.5,87.1 222.9,88.6 222.3,89.6 219.6,92.7 	"/>
	<polygon class="st1" points="334.2,628.2 335.4,627.8 336.1,627.3 336.6,627 338.2,628.5 340,628.5 342.9,627.9 345.8,626.6 
		347.2,624.6 347.8,624.8 348.2,624.9 351.2,623.9 354.5,623.6 356.1,624.8 356.4,625.1 355.3,629.3 354.3,631.5 352.8,636.5 
		350.6,641 349.6,645.5 348.5,647.4 347.5,651 344.5,651.3 337.9,648.6 335.9,648.4 334.9,649.5 333.7,652.6 332.5,654.2 
		331.6,654.8 330.1,655.3 328.6,656 327.2,655.8 325.7,655.4 324.2,655.3 322.9,656.1 319.2,656.9 318.4,657.8 318.5,658.9 
		318.8,660.4 318.9,661.9 318.2,664.5 315.7,671.4 314.4,676.5 311.2,682.3 300.4,691.3 298.3,694.4 296.8,698.8 295.7,706 
		295.1,708.2 294.3,709.4 291.2,712.7 290.1,713.4 290.4,714.3 290.3,715.1 290.1,715.7 289.9,716.5 288.7,717.9 288.3,718.5 
		288.4,720 288.6,720.2 289,720.2 289.6,722.2 289.7,723.2 290,724.1 290.1,724.2 290.1,724.2 287.2,724.8 283.8,724.8 281.4,726.1 
		279.1,728.3 277.8,729.2 276.8,729.4 276,729.1 274.4,728.8 273.7,728.4 267.5,728.4 258.4,732.2 256.3,733.7 255.5,734.2 
		254.8,734.7 254.1,734.7 252,735.9 251,736.1 250.3,736.5 250.2,737.5 248.4,737.7 246.4,739 246.1,739.9 245.5,740.9 244,741.8 
		240.7,742.4 239.2,742.4 235.3,743 233.8,744.1 233.3,745 233.1,746 233.5,746.6 234.4,747.9 234.4,748.5 233.5,748.8 229.4,751.1 
		226.8,753.2 225,754 223.8,754 219.4,753.5 217,753.5 213.3,752.5 205.1,746.3 203.3,745.4 201.9,743.7 201.6,742.8 201.3,740.7 
		200.4,739 197.5,738.2 195.4,738.5 194.4,739.1 193.2,738.9 191.8,738.9 189.4,739.5 184.8,741.1 184.4,741.5 183.6,742.6 
		183.4,743.7 182.8,745.1 180.8,745.9 178.8,746.8 173.7,746 172,745.2 167.5,742.5 166.1,742.3 161.6,743.1 160.6,743.5 160,744.3 
		159.4,745.1 158.8,745.6 157.6,745.4 157,744.8 153.9,743.3 149.1,743.1 148.2,742.6 147.1,741.6 146.1,740.4 144.2,738.8 
		142.4,738.3 140.2,736.9 138.8,735.9 139.2,733.9 139.9,730 140.2,723.2 139.5,719.7 138.4,717.4 136.8,715.5 136.6,713.6 
		138.2,707 138.7,703 139.7,699.2 141.3,698.5 144.6,697.8 145.3,694.3 145.3,693.7 144.1,694.7 141.5,695.4 138.6,695.5 
		137.7,692.9 138.5,685.3 139.5,680.1 140.6,681.2 141.3,682.1 141.9,682.5 142.7,682.6 143.5,682.1 144.5,681.6 145.3,681.3 
		147.4,682 148.2,683.1 148.6,683.9 151.6,687.6 152.7,689.6 153.3,690.3 154,690.3 154.4,689.6 154.8,688.8 155.6,688.4 
		156.5,688.6 157.4,689.1 158.3,689.8 160.3,690.7 161.6,690.8 163.6,690.1 164.2,689.1 164.5,687.9 164.6,686.8 165.6,683.5 
		166.2,682.4 168.2,680.3 168.8,679.2 169,678.2 170.2,677.1 172.2,676.2 182.7,674.2 187.8,675.1 190.9,675.1 191.4,675.2 
		194.8,677.1 196.4,672.9 196.9,671.9 198.2,667.9 199,661.4 198.9,657.1 197.8,653.9 197.1,652.4 195.5,651.2 194,651 192.7,650.7 
		191.2,650 189.4,647.9 187.2,646.1 186.6,644.6 186.4,643.8 186.3,643 186.7,642.1 186.9,641.2 187.2,640.3 187.5,639.2 
		188.1,637.9 188.9,637.8 189.6,638.1 190.2,638.4 190.8,638.4 191.2,637.7 191.5,637.2 192.1,635.8 192.2,635.1 192.2,634.3 
		192.3,633.7 192.6,633 193.4,632.7 194.1,632 194.9,631.8 196.1,632.3 196.9,633 197.9,633.3 198.7,632.8 199.4,630.2 199.5,629 
		200,628.1 200.8,627.5 205,627.6 205.8,626.4 206.3,624.8 207.2,624.3 211.3,623.3 213.3,622.3 217.5,621.1 218,619.4 218,618.4 
		218.1,617 217.2,613.2 214.3,607 214.8,605.7 223.4,605.8 226,605.5 227.7,605.8 228.3,606.1 229.7,607.6 230.9,608.5 232,608.8 
		233,608.9 235.6,607.5 236.9,607.6 237.9,607.9 241.3,609.3 244,612.4 253.9,616.9 259.8,617.6 262.8,618.7 270.3,622.9 272,623.4 
		279.7,623.6 281.9,624.1 284.5,625 289.8,625.1 291,624.8 291.3,623.8 292.8,621.3 294.8,619.2 298.1,617.5 298.3,617 300.2,616 
		300.6,615.4 301.8,614.4 302.6,613.1 303.2,611.7 303.3,610.7 303.4,609.7 307.1,608.6 310.9,606.6 311.9,606.2 312.7,606.2 
		315.6,605 316.6,604.9 317.4,605 317.7,605.6 317.9,606.1 318,606.8 318.2,607.3 318.7,608 319.3,608.8 319.8,609.8 320,611 
		320.2,612.1 320.8,613.1 323.1,615.5 326.2,616.9 326.9,617.7 327.2,618.7 327.4,619.7 328.7,622.8 329,623.9 330.1,626 331.1,627 
		332.5,628.1 	"/>
	<polygon class="st2" points="334.2,628.2 335.4,627.8 336.1,627.3 336.6,627 338.2,628.5 340,628.5 342.9,627.9 345.8,626.6 
		347.2,624.6 347.8,624.8 348.2,624.9 351.2,623.9 354.5,623.6 356.1,624.8 356.4,625.1 355.3,629.3 354.3,631.5 352.8,636.5 
		350.6,641 349.6,645.5 348.5,647.4 347.5,651 344.5,651.3 337.9,648.6 335.9,648.4 334.9,649.5 333.7,652.6 332.5,654.2 
		331.6,654.8 330.1,655.3 328.6,656 327.2,655.8 325.7,655.4 324.2,655.3 322.9,656.1 319.2,656.9 318.4,657.8 318.5,658.9 
		318.8,660.4 318.9,661.9 318.2,664.5 315.7,671.4 314.4,676.5 311.2,682.3 300.4,691.3 298.3,694.4 296.8,698.8 295.7,706 
		295.1,708.2 294.3,709.4 291.2,712.7 290.1,713.4 290.4,714.3 290.3,715.1 290.1,715.7 289.9,716.5 288.7,717.9 288.3,718.5 
		288.4,720 288.6,720.2 289,720.2 289.6,722.2 289.7,723.2 290,724.1 290.1,724.2 290.1,724.2 287.2,724.8 283.8,724.8 281.4,726.1 
		279.1,728.3 277.8,729.2 276.8,729.4 276,729.1 274.4,728.8 273.7,728.4 267.5,728.4 258.4,732.2 256.3,733.7 255.5,734.2 
		254.8,734.7 254.1,734.7 252,735.9 251,736.1 250.3,736.5 250.2,737.5 248.4,737.7 246.4,739 246.1,739.9 245.5,740.9 244,741.8 
		240.7,742.4 239.2,742.4 235.3,743 233.8,744.1 233.3,745 233.1,746 233.5,746.6 234.4,747.9 234.4,748.5 233.5,748.8 229.4,751.1 
		226.8,753.2 225,754 223.8,754 219.4,753.5 217,753.5 213.3,752.5 205.1,746.3 203.3,745.4 201.9,743.7 201.6,742.8 201.3,740.7 
		200.4,739 197.5,738.2 195.4,738.5 194.4,739.1 193.2,738.9 191.8,738.9 189.4,739.5 184.8,741.1 184.4,741.5 183.6,742.6 
		183.4,743.7 182.8,745.1 180.8,745.9 178.8,746.8 173.7,746 172,745.2 167.5,742.5 166.1,742.3 161.6,743.1 160.6,743.5 160,744.3 
		159.4,745.1 158.8,745.6 157.6,745.4 157,744.8 153.9,743.3 149.1,743.1 148.2,742.6 147.1,741.6 146.1,740.4 144.2,738.8 
		142.4,738.3 140.2,736.9 138.8,735.9 139.2,733.9 139.9,730 140.2,723.2 139.5,719.7 138.4,717.4 136.8,715.5 136.6,713.6 
		138.2,707 138.7,703 139.7,699.2 141.3,698.5 144.6,697.8 145.3,694.3 145.3,693.7 144.1,694.7 141.5,695.4 138.6,695.5 
		137.7,692.9 138.5,685.3 139.5,680.1 140.6,681.2 141.3,682.1 141.9,682.5 142.7,682.6 143.5,682.1 144.5,681.6 145.3,681.3 
		147.4,682 148.2,683.1 148.6,683.9 151.6,687.6 152.7,689.6 153.3,690.3 154,690.3 154.4,689.6 154.8,688.8 155.6,688.4 
		156.5,688.6 157.4,689.1 158.3,689.8 160.3,690.7 161.6,690.8 163.6,690.1 164.2,689.1 164.5,687.9 164.6,686.8 165.6,683.5 
		166.2,682.4 168.2,680.3 168.8,679.2 169,678.2 170.2,677.1 172.2,676.2 182.7,674.2 187.8,675.1 190.9,675.1 191.4,675.2 
		194.8,677.1 196.4,672.9 196.9,671.9 198.2,667.9 199,661.4 198.9,657.1 197.8,653.9 197.1,652.4 195.5,651.2 194,651 192.7,650.7 
		191.2,650 189.4,647.9 187.2,646.1 186.6,644.6 186.4,643.8 186.3,643 186.7,642.1 186.9,641.2 187.2,640.3 187.5,639.2 
		188.1,637.9 188.9,637.8 189.6,638.1 190.2,638.4 190.8,638.4 191.2,637.7 191.5,637.2 192.1,635.8 192.2,635.1 192.2,634.3 
		192.3,633.7 192.6,633 193.4,632.7 194.1,632 194.9,631.8 196.1,632.3 196.9,633 197.9,633.3 198.7,632.8 199.4,630.2 199.5,629 
		200,628.1 200.8,627.5 205,627.6 205.8,626.4 206.3,624.8 207.2,624.3 211.3,623.3 213.3,622.3 217.5,621.1 218,619.4 218,618.4 
		218.1,617 217.2,613.2 214.3,607 214.8,605.7 223.4,605.8 226,605.5 227.7,605.8 228.3,606.1 229.7,607.6 230.9,608.5 232,608.8 
		233,608.9 235.6,607.5 236.9,607.6 237.9,607.9 241.3,609.3 244,612.4 253.9,616.9 259.8,617.6 262.8,618.7 270.3,622.9 272,623.4 
		279.7,623.6 281.9,624.1 284.5,625 289.8,625.1 291,624.8 291.3,623.8 292.8,621.3 294.8,619.2 298.1,617.5 298.3,617 300.2,616 
		300.6,615.4 301.8,614.4 302.6,613.1 303.2,611.7 303.3,610.7 303.4,609.7 307.1,608.6 310.9,606.6 311.9,606.2 312.7,606.2 
		315.6,605 316.6,604.9 317.4,605 317.7,605.6 317.9,606.1 318,606.8 318.2,607.3 318.7,608 319.3,608.8 319.8,609.8 320,611 
		320.2,612.1 320.8,613.1 323.1,615.5 326.2,616.9 326.9,617.7 327.2,618.7 327.4,619.7 328.7,622.8 329,623.9 330.1,626 331.1,627 
		332.5,628.1 	"/>
	<polygon class="st1" points="217.5,203.1 219.1,202.8 219.9,200.9 220.2,200.4 220.6,200 222.1,198.6 222.9,198.7 223.3,199.2 
		223.4,199.9 223.4,200.3 223.4,200.5 223.1,201.3 219.4,206.7 218.9,208.4 218.5,210.2 218.6,211.2 219.2,213.3 219.8,217.3 
		220.8,220.1 220.7,221.9 220.1,223 219.1,223.3 218,223.2 217,222.7 216.1,222.1 215.1,221.6 213.7,221.7 211.6,222.7 210.2,223 
		208.9,222.8 207.9,222.3 204.3,222.7 205.6,227.5 205.5,228.4 204.4,230.1 202,235.3 199.3,238.3 196.6,240.5 195.5,242.6 
		195.4,243.2 195.4,243.9 195.6,244.9 196.1,245.8 197.8,247.6 198.5,248.9 198.8,250 199,254.3 199.8,256.4 200.4,256.8 
		202.5,257.7 204.4,259.3 199.6,261.2 198.8,262 198.2,263.2 198.2,264.2 199.5,267.6 200.3,270.4 201,271.4 201.8,272.1 
		202.5,273.1 203.9,275.4 197.4,278 194.7,280.1 194.5,280.9 194.8,281.9 195.9,284.1 195.9,286.1 195.4,287.4 192,292.6 
		192.5,297.4 191.4,298.5 191.5,299.8 190.1,301.6 187.6,301.5 186.7,301.7 185.8,302.8 185.1,304.1 182.4,307.5 181.9,308.9 
		180.8,310 179.9,310.6 173.1,309.9 172.3,308.9 172.1,308 172.1,306.6 172.5,305 173.4,302.7 174,301.7 174.7,301 175,300.8 
		175.5,300.3 175.8,299.9 176.4,297.6 176.5,296.7 176.3,295.6 174.9,293 174.3,290 173,290.1 171.1,290.9 169.2,292.2 168.2,292.6 
		167.2,292.4 166.4,291.3 166,288.5 165.9,287 166.6,283.2 162.1,280.1 159.6,284.1 159.1,286.6 158.2,288.2 154.3,287.7 
		141.3,274.4 141.1,274.1 141.4,272 143.7,264.9 145.2,255.9 145.5,255.4 146.2,255 146.2,258.2 146.2,259.3 148.5,255.3 150.2,254 
		151.9,255 152.6,255 152.6,254 152.3,253.6 151.8,252.7 151.5,251.7 151.9,250.8 153,250.2 153.7,250.6 154.1,251.5 154.7,251.9 
		155.9,251.4 156.8,250.3 158.3,247.7 156.4,246.5 155.4,244.7 155.7,243 157.9,242.3 160.6,242 162.7,241.2 164.5,239.9 
		166.4,238.2 164.4,238.3 161.4,239.8 158.9,240.3 158.5,240.6 157.8,240.6 155.1,239.4 154.3,238.2 153.3,233.9 157.8,227.6 
		156.7,224.3 156.5,226.9 155.7,229 154.9,229.6 154.3,227.5 152.6,230.6 151.3,234.7 150.5,239 150.2,242.9 149.7,245.4 
		148.4,248.9 146.9,252.2 145.4,254 156.7,201.2 156.7,197.7 156.7,197.7 157.8,197.4 162.9,196.7 164.9,197.9 168.6,196.6 
		170.4,195.3 171.8,195.3 172.9,195.9 173.9,196.8 175.5,197.7 176.7,197.6 177.6,197 178.4,194.8 178.9,194 181,191.6 183.4,194.2 
		183.9,195 184.8,196.8 186.9,198.4 187.9,198.4 188.3,197.7 188.1,196.7 187.5,195.9 187.4,194.9 187.6,194.1 190.6,192.6 
		193,193.4 198.7,189.4 199.1,189 199.6,187.3 206.7,191.9 207.1,192.9 207.5,194.4 207.3,195.4 207.3,198.8 216.1,203 	"/>
	<polygon class="st2" points="217.5,203.1 219.1,202.8 219.9,200.9 220.2,200.4 220.6,200 222.1,198.6 222.9,198.7 223.3,199.2 
		223.4,199.9 223.4,200.3 223.4,200.5 223.1,201.3 219.4,206.7 218.9,208.4 218.5,210.2 218.6,211.2 219.2,213.3 219.8,217.3 
		220.8,220.1 220.7,221.9 220.1,223 219.1,223.3 218,223.2 217,222.7 216.1,222.1 215.1,221.6 213.7,221.7 211.6,222.7 210.2,223 
		208.9,222.8 207.9,222.3 204.3,222.7 205.6,227.5 205.5,228.4 204.4,230.1 202,235.3 199.3,238.3 196.6,240.5 195.5,242.6 
		195.4,243.2 195.4,243.9 195.6,244.9 196.1,245.8 197.8,247.6 198.5,248.9 198.8,250 199,254.3 199.8,256.4 200.4,256.8 
		202.5,257.7 204.4,259.3 199.6,261.2 198.8,262 198.2,263.2 198.2,264.2 199.5,267.6 200.3,270.4 201,271.4 201.8,272.1 
		202.5,273.1 203.9,275.4 197.4,278 194.7,280.1 194.5,280.9 194.8,281.9 195.9,284.1 195.9,286.1 195.4,287.4 192,292.6 
		192.5,297.4 191.4,298.5 191.5,299.8 190.1,301.6 187.6,301.5 186.7,301.7 185.8,302.8 185.1,304.1 182.4,307.5 181.9,308.9 
		180.8,310 179.9,310.6 173.1,309.9 172.3,308.9 172.1,308 172.1,306.6 172.5,305 173.4,302.7 174,301.7 174.7,301 175,300.8 
		175.5,300.3 175.8,299.9 176.4,297.6 176.5,296.7 176.3,295.6 174.9,293 174.3,290 173,290.1 171.1,290.9 169.2,292.2 168.2,292.6 
		167.2,292.4 166.4,291.3 166,288.5 165.9,287 166.6,283.2 162.1,280.1 159.6,284.1 159.1,286.6 158.2,288.2 154.3,287.7 
		141.3,274.4 141.1,274.1 141.4,272 143.7,264.9 145.2,255.9 145.5,255.4 146.2,255 146.2,258.2 146.2,259.3 148.5,255.3 150.2,254 
		151.9,255 152.6,255 152.6,254 152.3,253.6 151.8,252.7 151.5,251.7 151.9,250.8 153,250.2 153.7,250.6 154.1,251.5 154.7,251.9 
		155.9,251.4 156.8,250.3 158.3,247.7 156.4,246.5 155.4,244.7 155.7,243 157.9,242.3 160.6,242 162.7,241.2 164.5,239.9 
		166.4,238.2 164.4,238.3 161.4,239.8 158.9,240.3 158.5,240.6 157.8,240.6 155.1,239.4 154.3,238.2 153.3,233.9 157.8,227.6 
		156.7,224.3 156.5,226.9 155.7,229 154.9,229.6 154.3,227.5 152.6,230.6 151.3,234.7 150.5,239 150.2,242.9 149.7,245.4 
		148.4,248.9 146.9,252.2 145.4,254 156.7,201.2 156.7,197.7 156.7,197.7 157.8,197.4 162.9,196.7 164.9,197.9 168.6,196.6 
		170.4,195.3 171.8,195.3 172.9,195.9 173.9,196.8 175.5,197.7 176.7,197.6 177.6,197 178.4,194.8 178.9,194 181,191.6 183.4,194.2 
		183.9,195 184.8,196.8 186.9,198.4 187.9,198.4 188.3,197.7 188.1,196.7 187.5,195.9 187.4,194.9 187.6,194.1 190.6,192.6 
		193,193.4 198.7,189.4 199.1,189 199.6,187.3 206.7,191.9 207.1,192.9 207.5,194.4 207.3,195.4 207.3,198.8 216.1,203 	"/>
	<rect x="466.5" y="595.3" class="st4" width="130" height="188.3"/>
	<path class="st1" d="M526.3,637.5l-0.4,0.1l-0.4,0.3l-0.6-0.4l-0.7-0.2l-1.4-0.1l-0.4-0.1l-0.4-0.2l-2-1.5l-0.5-0.2l-1.1-0.9
		l-0.6-0.2l-1.4,0.2l-0.8,0.2l-0.6,0.3l-0.7,0.5l-1,0.2l-1-0.1l-1-0.6l-0.8-0.3l-0.2,0l-0.4-0.2l-0.9-1l-0.4-0.3l-0.4-0.2l-0.3-0.1
		l-0.3,0.1l-0.3,0.2l-0.9,1.3l-0.2,0.2l-0.6,0.3l-0.2,0.6l0.1,0.8l0.3,0.8l1,1.3l1.3,1.1l1.4,0.9l6.3,2.7l3,0.3l1.8-0.1l1.6-0.6
		l0.7-1.4l0.2-0.4l1.2-1.6l0.5-0.3l0.5-0.1l1.3-0.6l0.6-0.2l-0.4-0.3L526.3,637.5z M541.5,623.1l0-1.4l-0.3,0.3l-0.8-0.4l-0.9,0.2
		l-0.8,0.7l-0.5,1.5l-0.2,0.3l-0.3,0.2l-0.4,0v0.3l0.8,0.4l0.5-0.1l0.4-0.4l0.5-0.6l0.5-0.4l0.6,0l1.3,0.3l-0.4-0.3L541.5,623.1z
		 M533.3,647.8l-0.7-1.1l-0.6-0.6l0.1,0.6l0.1,0.5l0.2,0.4l0.3,0.4l1.3,2.2l-0.2-1.2L533.3,647.8z M551.3,761.9l0.2,0v-0.1l-0.2-0.1
		L551.3,761.9z M557.8,756.6l-0.3-0.3l-0.3,0.4l0,0.1v0.1l0,0.1l0.2,0.1l0.3,0.1l0.1,0.1l0.2-0.3L557.8,756.6z"/>
	<path class="st5" d="M526.3,637.5l-0.4,0.1l-0.4,0.3l-0.6-0.4l-0.7-0.2l-1.4-0.1l-0.4-0.1l-0.4-0.2l-2-1.5l-0.5-0.2l-1.1-0.9
		l-0.6-0.2l-1.4,0.2l-0.8,0.2l-0.6,0.3l-0.7,0.5l-1,0.2l-1-0.1l-1-0.6l-0.8-0.3l-0.2,0l-0.4-0.2l-0.9-1l-0.4-0.3l-0.4-0.2l-0.3-0.1
		l-0.3,0.1l-0.3,0.2l-0.9,1.3l-0.2,0.2l-0.6,0.3l-0.2,0.6l0.1,0.8l0.3,0.8l1,1.3l1.3,1.1l1.4,0.9l6.3,2.7l3,0.3l1.8-0.1l1.6-0.6
		l0.7-1.4l0.2-0.4l1.2-1.6l0.5-0.3l0.5-0.1l1.3-0.6l0.6-0.2l-0.4-0.3L526.3,637.5z M541.5,623.1l0-1.4l-0.3,0.3l-0.8-0.4l-0.9,0.2
		l-0.8,0.7l-0.5,1.5l-0.2,0.3l-0.3,0.2l-0.4,0v0.3l0.8,0.4l0.5-0.1l0.4-0.4l0.5-0.6l0.5-0.4l0.6,0l1.3,0.3l-0.4-0.3L541.5,623.1z
		 M533.3,647.8l-0.7-1.1l-0.6-0.6l0.1,0.6l0.1,0.5l0.2,0.4l0.3,0.4l1.3,2.2l-0.2-1.2L533.3,647.8z M551.3,761.9l0.2,0v-0.1l-0.2-0.1
		L551.3,761.9z M557.8,756.6l-0.3-0.3l-0.3,0.4l0,0.1v0.1l0,0.1l0.2,0.1l0.3,0.1l0.1,0.1l0.2-0.3L557.8,756.6z"/>
	<rect x="466.5" y="357.3" class="st4" width="285" height="188.3"/>
	<path class="st1" d="M491.9,392.9l-0.7-1l-0.5,0.3l-0.5-0.1l-0.5-0.3l-0.4-0.3l0.3-0.7l-0.7,0l-0.8,0.3l-0.6,0.5l-0.3,0.8l-0.2,1
		l-0.3,0.8l-0.2,0.7l0.2,0.9l-0.4,0.5l0,0.9l0.3,1l0.4,0.7l0.5,0.3l0.8,0.1l0.9-0.1l0.7-0.4l0.6,0.5l0.8-0.9l0.7-1.4l0.3-1.2l0-2.2
		L491.9,392.9z M492.8,380.2l-0.5,0.1l-0.5,0.3l-0.3,0.5l-0.1,0.5l0.1,0.2l0.6,1.6l0.1,0.3l1.2-0.3l0.8-1.5l-0.1-1.5L492.8,380.2z
		 M652.7,432.9l-0.3-0.3l0.1-0.5l-0.2-1l-1.3-1.2l-1.6-1l-1.1-0.5l-6-0.4l-1.3,0.3l-1.4,0.8l-0.9,1.2l0.3,1.6l0.4,1.1l0.8,1.2l1,0.9
		l0.9,0.4l1,0.1l1,0.2l1,0.6l0.4,0l0.5-0.6l0.9,0.7l2.6,0l1,0.4l1.1-0.5l0.2-0.2l0.1-0.5l-0.2-0.9l0.1-0.4l0.3-0.2l0.9-0.4l0.2-0.2
		l-0.1-0.5L652.7,432.9z M622,439.3l-2.9-1.1l-5.6-3.2l-7.8-3l-0.7-0.1l-0.6-0.2l-1.3-0.9l-0.7-0.3l0,0.7l0.1,0.3l1.8,1.6l0.3,0.2
		l0.3,0.1l0,0.2l0,0.2l0.1,0.2l0.3,0.2l0.1,0l0.1-0.1l0.3-0.1l0.3,0.2l0.8,1.4l0.7,0.5l4.1,1.4l0.5,0.3l0.7,0.9l0.4,0.2l0.5-0.4
		l0.7,0.4l1.1-0.2l0.6,0.3l0.5,0.5l0.6,0.4l0.7,0.3l1.2,0.2l1.3,0.7l0.6,0.2l1.5,0.1l0.7-0.1l0.7-0.3l-0.7-0.9L622,439.3z
		 M613,416.6l0.8,0.3l0.8,0.2l0.8,0l0.7-0.1l0.7-0.4l0.4-0.6l-0.2-0.9l-0.6-0.7l-1.3-1.1l-0.6-0.9l-0.3,0.4l-0.4-0.3l-0.4-0.1
		l-0.4,0.1l-0.4,0.3l-0.7,1.6l-0.1,0.7l0.4,0.9L613,416.6z M590,437.7l-3.4-1.6l-0.4,0.3l-0.6,1l-0.3,0.4l-0.5,0.3l-0.5,0.1l-1.1,0
		l-1.3,0.2l0,0.4l1.8,1.1l0.8,0.8l1,1.6l0.9,0.4l0.5,0l1.2-0.3l0.5,0l0.9,0.3l0.5,0l0.5-0.4l-0.3-0.1l-0.1-0.1l-0.1-0.2l-0.2-0.3
		l0.3-0.3l1.2-0.6l0.3-0.1l-0.5-2.3L590,437.7z M612.3,446.5l-1.8-0.2l-2.5-0.9l-0.8-0.2l-0.4-0.2l-0.8-0.7l-0.4-0.2l-0.1-0.1
		l-1.4-0.6l-3.9-2.5l-1.6-0.3l-2.8-0.1l-1.3,0.4l-1.2,1.1v2.3l0.9,1.6l2.6,2.5l0.8-0.4l5.6,0.1l0.9,0.3l0.5,0.6l0.4,0.6l0.5,0.3
		l1.4-1.2l0.8-0.3l0.9-0.1l3,0.5l1.2,0l0.5-0.5L613,447L612.3,446.5z M731.1,519.9l-0.7-0.9l-0.8-0.5l-1.1-0.1l-1.5,0.1l-1.4,0.4
		l-0.8,0.8l-0.4,0.5l0.2,0.5l0.5,0.6l0.3,0.6l0.3,0.5l0.7,0l1.3-0.3l2.3,0.8l1.3,0.1l0.6-0.7l-0.2-1.1L731.1,519.9z M726.1,481.5
		l1-1.6l-0.1-1.8l-0.9-1.5l-1.5-0.6l-5.6,0.1l-4,1.2l-0.6,0.4l-0.4-0.3l-0.8-0.7l-0.4-0.1l-0.5,0.2l-1,0.7l-0.6,0.2l-5-0.7l-0.3-0.1
		l-0.2-0.3l-0.1-0.5l0-0.6l-0.2-0.4l-1.4-1.2l-1-0.3l-3,0.3l-0.7,2.7l1.3,1.9l4.7,3.6l3.5,0.2l2.2,0.6l1,0.5l1.1,0.7l0.7-0.4
		l0.9-0.1l1.8,0.1l1.9-0.2l1.8-0.5l5.2-0.7L726.1,481.5z"/>
	<path class="st6" d="M491.9,392.9l-0.7-1l-0.5,0.3l-0.5-0.1l-0.5-0.3l-0.4-0.3l0.3-0.7l-0.7,0l-0.8,0.3l-0.6,0.5l-0.3,0.8l-0.2,1
		l-0.3,0.8l-0.2,0.7l0.2,0.9l-0.4,0.5l0,0.9l0.3,1l0.4,0.7l0.5,0.3l0.8,0.1l0.9-0.1l0.7-0.4l0.6,0.5l0.8-0.9l0.7-1.4l0.3-1.2l0-2.2
		L491.9,392.9z M492.8,380.2l-0.5,0.1l-0.5,0.3l-0.3,0.5l-0.1,0.5l0.1,0.2l0.6,1.6l0.1,0.3l1.2-0.3l0.8-1.5l-0.1-1.5L492.8,380.2z
		 M652.7,432.9l-0.3-0.3l0.1-0.5l-0.2-1l-1.3-1.2l-1.6-1l-1.1-0.5l-6-0.4l-1.3,0.3l-1.4,0.8l-0.9,1.2l0.3,1.6l0.4,1.1l0.8,1.2l1,0.9
		l0.9,0.4l1,0.1l1,0.2l1,0.6l0.4,0l0.5-0.6l0.9,0.7l2.6,0l1,0.4l1.1-0.5l0.2-0.2l0.1-0.5l-0.2-0.9l0.1-0.4l0.3-0.2l0.9-0.4l0.2-0.2
		l-0.1-0.5L652.7,432.9z M622,439.3l-2.9-1.1l-5.6-3.2l-7.8-3l-0.7-0.1l-0.6-0.2l-1.3-0.9l-0.7-0.3l0,0.7l0.1,0.3l1.8,1.6l0.3,0.2
		l0.3,0.1l0,0.2l0,0.2l0.1,0.2l0.3,0.2l0.1,0l0.1-0.1l0.3-0.1l0.3,0.2l0.8,1.4l0.7,0.5l4.1,1.4l0.5,0.3l0.7,0.9l0.4,0.2l0.5-0.4
		l0.7,0.4l1.1-0.2l0.6,0.3l0.5,0.5l0.6,0.4l0.7,0.3l1.2,0.2l1.3,0.7l0.6,0.2l1.5,0.1l0.7-0.1l0.7-0.3l-0.7-0.9L622,439.3z
		 M613,416.6l0.8,0.3l0.8,0.2l0.8,0l0.7-0.1l0.7-0.4l0.4-0.6l-0.2-0.9l-0.6-0.7l-1.3-1.1l-0.6-0.9l-0.3,0.4l-0.4-0.3l-0.4-0.1
		l-0.4,0.1l-0.4,0.3l-0.7,1.6l-0.1,0.7l0.4,0.9L613,416.6z M590,437.7l-3.4-1.6l-0.4,0.3l-0.6,1l-0.3,0.4l-0.5,0.3l-0.5,0.1l-1.1,0
		l-1.3,0.2l0,0.4l1.8,1.1l0.8,0.8l1,1.6l0.9,0.4l0.5,0l1.2-0.3l0.5,0l0.9,0.3l0.5,0l0.5-0.4l-0.3-0.1l-0.1-0.1l-0.1-0.2l-0.2-0.3
		l0.3-0.3l1.2-0.6l0.3-0.1l-0.5-2.3L590,437.7z M612.3,446.5l-1.8-0.2l-2.5-0.9l-0.8-0.2l-0.4-0.2l-0.8-0.7l-0.4-0.2l-0.1-0.1
		l-1.4-0.6l-3.9-2.5l-1.6-0.3l-2.8-0.1l-1.3,0.4l-1.2,1.1v2.3l0.9,1.6l2.6,2.5l0.8-0.4l5.6,0.1l0.9,0.3l0.5,0.6l0.4,0.6l0.5,0.3
		l1.4-1.2l0.8-0.3l0.9-0.1l3,0.5l1.2,0l0.5-0.5L613,447L612.3,446.5z M731.1,519.9l-0.7-0.9l-0.8-0.5l-1.1-0.1l-1.5,0.1l-1.4,0.4
		l-0.8,0.8l-0.4,0.5l0.2,0.5l0.5,0.6l0.3,0.6l0.3,0.5l0.7,0l1.3-0.3l2.3,0.8l1.3,0.1l0.6-0.7l-0.2-1.1L731.1,519.9z M726.1,481.5
		l1-1.6l-0.1-1.8l-0.9-1.5l-1.5-0.6l-5.6,0.1l-4,1.2l-0.6,0.4l-0.4-0.3l-0.8-0.7l-0.4-0.1l-0.5,0.2l-1,0.7l-0.6,0.2l-5-0.7l-0.3-0.1
		l-0.2-0.3l-0.1-0.5l0-0.6l-0.2-0.4l-1.4-1.2l-1-0.3l-3,0.3l-0.7,2.7l1.3,1.9l4.7,3.6l3.5,0.2l2.2,0.6l1,0.5l1.1,0.7l0.7-0.4
		l0.9-0.1l1.8,0.1l1.9-0.2l1.8-0.5l5.2-0.7L726.1,481.5z"/>
	<text transform="matrix(1 0 0 1 464 567.6182)" class="st3 st7 st8">Aores</text>
	<text transform="matrix(1 0 0 1 464 805.6182)" class="st3 st7 st8">Madeira</text>
	<g>
		<defs>
			<rect id="SVGID_3_" x="-176.5" y="-36.5" width="951" height="875"/>
		</defs>
		<clipPath id="SVGID_4_">
			<use xlink:href="#SVGID_3_"  style="overflow:visible;"/>
		</clipPath>
	</g>
</g>
</svg>
